<svg version="1.1"  xmlns="http://www.w3.org/2000/svg" x="0" y="0" viewBox="0 0 121.8 77.8" xml:space="preserve">
<style>.st0{fill:#0047b5}.st2{fill:#fff}</style><path class="st0" d="M55.5 2.3 7.9 15.7c-3.9 1.1-6.5 4.6-6.5 8.6v29.1c0 4 2.7 7.5 6.5 8.6l47.6 13.4c3.5 1 7.3 1 10.8 0L114 62.1c3.9-1.1 6.5-4.6 6.5-8.6V24.4c0-4-2.7-7.5-6.5-8.6L66.3 2.3c-3.5-1-7.2-1-10.8 0z"/><path d="M113.2 18.5 65.6 5.1c-3.1-.9-6.3-.8-9.3 0L8.7 18.5c-2.6.7-4.5 3.2-4.5 5.9v29.1c0 2.7 1.8 5.1 4.5 5.9l47.6 13.4c2.8.8 6 .9 9.3 0l47.6-13.4c2.6-.7 4.5-3.2 4.5-5.9V24.4c-.1-2.8-1.9-5.2-4.5-5.9zm2.4 35c0 1.8-1.2 3.4-2.9 3.9L65 70.8c-2.5.7-5.3.8-8.1 0L9.2 57.3c-1.7-.5-2.9-2.1-2.9-3.9v-29c0-1.8 1.2-3.4 2.9-3.9L56.9 7.1c2.5-.7 5.3-.8 8.1 0l47.6 13.4c1.7.5 2.9 2.1 2.9 3.9v29.1z" style="fill:#d03242"/><path class="st2" d="M100 51.2c0-.8-.3-1.2-.9-1.2-.5 0-.9.3-1.2.6v-.5h-1.2v.2h.3v2.9h-.3v.2h1.5v-.2h-.3v-2.4c.2-.1.5-.3.7-.3.4 0 .6.2.6.8v1.9h-.3v.2h1.5v-.2h-.3v-2zM94.2 50c-1.1 0-1.9.7-1.9 1.8 0 1.3.7 1.8 1.8 1.8s1.9-.7 1.9-1.8-.7-1.8-1.8-1.8zm0 3.4c-.5 0-.8-.5-.8-1.5s.3-1.5.8-1.5.9.5.9 1.5-.4 1.5-.9 1.5zm-3.1-1v-2h.8v-.3h-.8v-1l-.9.3v.7h-.6v.3h.6v2.2c0 .6.2.9.9.9.3 0 .7-.1 1.1-.2v-.2c-.1.1-.3.1-.5.1-.5-.1-.6-.2-.6-.8zM89 48.6h-1.2v.2l.3.1v4.4h-.3v.2h1.5v-.2H89v-4.7zm-2.6 1c.3 0 .5-.2.5-.6 0-.3-.2-.5-.5-.5s-.5.2-.5.5c0 .4.2.6.5.6zm.4.5h-1.2v.2l.3.1v2.9h-.3v.2h1.5v-.2h-.3v-3.2zM83.2 49h.4v1.8h-2.1V49h.3v-.2h-1.6v.2h.4v4.2h-.4v.2h1.6v-.2h-.3v-2h2.1v2h-.4v.2h1.7v-.2h-.3V49h.3v-.2h-1.7v.2zm-5.7 1.3h.3l-.8 2.2-1-2.1.3-.1v-.2h-1.5v.2l.2.1 1.4 3.2v.1c-.2.4-.5 1-.9 1-.1 0-.2 0-.3-.1l-.1-.3h-.2v.7c.2 0 .3.1.6.1.6 0 1-.6 1.3-1.4l1.4-3.4h.3v-.2h-1v.2zm-4.2-.3c-.4 0-.7.2-1.1.5v-1.9H71v.2l.3.1v4.4H71v.2h1.2v-.2c.2.1.5.2.9.2 1 0 1.6-.7 1.6-1.8 0-1-.6-1.7-1.4-1.7zm-.3 3.2c-.3 0-.6-.2-.8-.3v-2.2c.2-.1.4-.2.6-.2.6 0 .9.5.9 1.3.1.9-.2 1.4-.7 1.4zM35.3 34.9c0-.1-.1-.2-.2-.2h-1.4c1.3-3.9 3.1-8.3 5.8-11 .1-.1.1-.2.1-.3 0-.2-.1-.4-.4-.4-1.2 0-5.7 2.3-8.8 11.6H26c1.1-3.9 1.8-6.4 3.5-8.7.2-.3.4-.6.4-.8 0-.3-.3-.4-.9-.4-4.1-.1-10.2 1.2-10.2 3.6 0 .4.1.7.4.7.1 0 .2 0 .3-.1 1.6-1.5 4.2-2.9 8.7-3.4-2.2 1.4-4.2 5.3-5.4 9.1h-1.1c-.8 0-1.4.7-1.4.9 0 .1.1.2.2.2h2c-.1.2-.1.3-.1.5-1.6 5.7-3.6 12.6-8.6 12.6-1 0-1.8-.4-2.4-1-.1-.1-.2-.2-.3-.2-.2 0-.3.2-.3.4 0 1 1.3 1.9 2.9 1.9 6.5 0 10.2-7.2 12.1-13.8 0-.2.1-.3.1-.5h4.5c-2.7 8.9-.2 13.4 1.2 13.4.2 0 .4-.2.3-.5-.7-3.2.2-8.1 1.8-13h.6c.5.3 1-.4 1-.6zm73.2 7.9c-.1 0-.2.1-.3.2-.9 1.2-2.1 2-3.3 2-1.9 0-2.7-1.9-1.6-5.3l1.5-4.5c.6-2 .3-4-1.7-4-1.6 0-2.9 1.1-3.9 2.6.2-1.2-.1-2.3-1.7-2.3-.3 0-.5 0-.6.3l-.2.5c-.6 1.9-2.1 3.1-3.4 3.6v-1.1c0-1.9-.9-3.6-3-3.6-3.1 0-5.2 2.8-6.1 5.8-.2.6-.4 1.1-.6 1.7-.8 1.5-2.1 3.1-3 3.1-.6 0-.7-.7-.2-2.1l2.3-7.3h1.9c.8 0 1.2-.5 1.2-.8 0-.1-.1-.2-.2-.2H83l1.4-4.3c.1-.4-.2-.5-.7-.5-1.3 0-2.3.7-2.7 1.9l-.9 2.9h-1.2c-.8 0-1.2.5-1.2.8 0 .1.1.2.2.2h1.9l-2.1 6.4c-.6 2-1.9 3.4-3.5 3.4-.3 0-.6 0-.9-.1 3.3-3.5 4.5-10.8.5-10.8-1.3 0-2.5.9-3.4 2.1.1-1-.3-1.9-1.8-1.9-.3 0-.5 0-.6.3l-1.8 5.7c-.6 2-2.4 4.4-3.6 4.4-.6 0-.7-.7-.2-2.1l1.4-4.5c.6-2 .3-4-1.7-4-1.7 0-3.1 1.3-4.1 2.8.2-1.6-.4-2.8-1.9-2.8-1.6 0-2.9 1.1-3.9 2.6.2-1.2-.1-2.3-1.7-2.3-.3 0-.5 0-.6.3L48 37.4c-.6 2-2.4 4.4-3.6 4.4-.6 0-.7-.7-.2-2.1l2.5-7.8c.1-.4-.1-.5-.7-.5-1.2 0-2.1.6-2.5 1.5-.2-1-.8-1.8-2-1.8-5.8 0-9.4 12.6-4.2 12.6 1.4 0 2.6-1 3.6-2.4 0 1.3.6 2.4 2 2.4 1.6 0 2.9-1.2 3.9-2.6-.3 1.1-.1 2.4 1.4 2.4.4 0 .7 0 .8-.3l1.6-5.1c.9-2.8 2.6-5 3.8-5 .6 0 .7.7.2 2.1L53 40.7c-.5 1.7-.3 2.9 1.3 2.9.4 0 .7 0 .8-.3l1.6-5.1c.9-2.8 2.6-5 3.8-5 .6 0 .7.7.2 2.1l-1.4 4.5c-.6 2-.3 4 1.7 4 1.6 0 2.9-1.2 3.9-2.6l-1.3 4.2c-.5 1.7-.3 2.9 1.3 2.9.4 0 .7 0 .8-.3l1.9-5.9c.2 1 .8 1.6 2 1.6 1 0 1.9-.4 2.7-1 .5.2 1.1.4 1.6.4 1.1 0 2.1-.5 3-1.6 0 1.2.6 2.2 2 2.2 2.1 0 3.8-2.1 4.9-4.1 0 2.2 1 4.1 3.3 4.1 3.3 0 5.4-3.6 6-6.9.9-.3 1.8-.8 2.6-1.6L94 40.6c-.5 1.7-.3 2.9 1.3 2.9.4 0 .7 0 .8-.3l1.6-5.1c.9-2.8 2.6-5 3.8-5 .6 0 .7.7.2 2.1l-1.1 3.4c-1.5 4.6.1 7.6 3.7 7.6 2.4 0 4.6-1.6 4.6-3.1-.1-.1-.2-.3-.4-.3zm-69.9-1c-2.4 0 .3-8.9 3.2-8.9.5 0 .9.4.9 1.3 0 1.7-1.9 7.6-4.1 7.6zm30.6.3c-.5 0-.9-.4-.9-1.3 0-1.7 1.9-7.6 4.1-7.6 2.4 0-.4 8.9-3.2 8.9zm18.7.1c-.9 0-1.3-1.1-1.3-2.4 0-1.8.6-4 1.5-5.5.1 1.8 1.5 2.7 3.2 2.8-.5 2.6-1.8 5.1-3.4 5.1zm3.6-6.1c-1.2 0-2.2-.7-2.2-2.1 0-.9.6-1.5 1.2-1.5.8 0 1.2.9 1.2 2.1-.1.5-.1 1-.2 1.5z"/><path class="st0" d="M116.3 66.1V64h-.8v-.4h2v.4h-.8v2.1zM119.7 66.1v-1.8l-.6 1.4h-.4l-.6-1.4v1.8h-.4v-2.5h.6c.1.1.5 1.1.6 1.4.2-.3.6-1.3.7-1.4h.5v2.5h-.4z"/><path style="fill:none" d="M0 0h121.8v77.8H0z"/></svg>