<svg xmlns="http://www.w3.org/2000/svg" viewBox="0 0 214.58 214.47"><g id="cdr_layer2"><path d="M88.86,19.85a18.09,18.09,0,0,0,5.26,12.64,17.85,17.85,0,0,0,12.65,5.27h0a17.85,17.85,0,0,0,12.65-5.27,18.06,18.06,0,0,0,5.26-12.63l-12.07,2,7.76,9.58-11.18-6.65-2.42,13-2.42-12.95L93.13,31.4l7.8-9.52Zm17.91-18h0A17.82,17.82,0,0,0,94.12,7.13a18,18,0,0,0-5.26,12.61l12.07-2-7.74-9.6,11.16,6.67,2.42-12.94,2.42,12.94,11.17-6.66-7.75,9.59,12.07,2a18,18,0,0,0-5.26-12.62A17.82,17.82,0,0,0,106.77,1.85Zm0-1.85h0a19.8,19.8,0,0,1,19.75,19.8h0a19.8,19.8,0,0,1-19.75,19.8h0A19.8,19.8,0,0,1,87,19.81h0A19.8,19.8,0,0,1,106.77,0Z" style="fill:#fff;fill-rule:evenodd"/><path d="M159.33,47.7c4.6,7,12.42,9.55,21.78,12.15-1-11.09-5.94-18.24-14.08-22.14L171.3,49.5A31.34,31.34,0,0,0,159.33,47.7Z" style="fill:#fff;fill-rule:evenodd"/><path d="M150.38,34.6c3.66,7.56,9.37,11,16.76,11C163.87,38.94,158.58,34.88,150.38,34.6Z" style="fill:#fff;fill-rule:evenodd"/><path d="M172.93,61.66c4,9.31,12.83,14,23.44,19,1.08-13.43-3.3-23-12.19-29.32l2.65,14.94A37.74,37.74,0,0,0,172.93,61.66Z" style="fill:#fff;fill-rule:evenodd"/><path d="M184.52,79.55c2.31,12.47,11.6,18.73,20,27,2.75-15.87,4.15-29.46-3.48-34.41l-1.72,13.57C193.9,82.05,189,80,184.52,79.55Z" style="fill:#fff;fill-rule:evenodd"/><path d="M191.21,99.46c-1.23,11.59,8.33,19.56,12.94,30.05,8.58-11.81,13.14-23.57,6.63-35.19-1,7.86-4.39,12.19-6.59,18.28A46.78,46.78,0,0,0,191.21,99.46Z" style="fill:#fff;fill-rule:evenodd"/><path d="M193,118.56C188.56,130,194.74,139,196.71,154c16-11.64,20.75-23.77,16.28-36.3-2.71,7.85-6.13,14.31-11.09,17.71Z" style="fill:#fff;fill-rule:evenodd"/><path d="M188.82,141c-4.26,8.1-5.86,20.77-8.85,34,18.9-4.41,29.54-13.63,31.09-28.12-7.1,4.28-12.39,10.39-18.5,13.05C192.37,151.93,191.67,145.4,188.82,141Z" style="fill:#fff;fill-rule:evenodd"/><path d="M153.91,193.44c10-9.61,10.11-26.05,23.35-30.7L173.57,179c9.83-1.35,18.21-3.55,25-6.68C190.59,186.74,174.46,193.07,153.91,193.44Z" style="fill:#fff;fill-rule:evenodd"/><path d="M101.94,213.67l-85.5.76-2.09,0,1-1.82,3.92-6.9.38-.67.77.07c11.44,1,22.43-1.75,33.21-4.48,17.9-4.53,35.21-8.91,53.55,3.95,15.93-13.13,33.16-8.82,51.63-4.19,11.49,2.88,23.48,5.88,35.78,4.73l.79-.07.38.7,3.72,6.91,1,1.79-2,0-85.8-.79-.4.4-.35.36h-9.23l-.36-.38ZM18.5,212l83.93-.75h.51l.36.38.37.38h7.23l.39-.4.37-.36h.5l84.26.78L194,207.61c-12.43,1-24.35-2-35.78-4.86-18.13-4.54-35-8.77-50.2,4.29l-.72.62-.77-.56c-17.72-12.87-34.73-8.57-52.32-4.11-10.73,2.71-21.67,5.48-33.24,4.6Z" style="fill:#fff;fill-rule:evenodd"/><path d="M55.35,47.13c-4.6,7-12.42,9.54-21.78,12.15,1-11.09,5.94-18.25,14.08-22.15L43.38,48.92A31.32,31.32,0,0,1,55.35,47.13Z" style="fill:#fff;fill-rule:evenodd"/><path d="M64.3,34c-3.66,7.55-9.37,11-16.76,11C50.82,38.37,56.1,34.3,64.3,34Z" style="fill:#fff;fill-rule:evenodd"/><path d="M30.16,79c-2.31,12.47-11.6,18.73-19.95,27C7.46,90.14,6.05,76.56,13.68,71.6L15.4,85.17C20.78,81.47,25.64,79.41,30.16,79Z" style="fill:#fff;fill-rule:evenodd"/><path d="M23.47,98.89c1.23,11.59-8.32,19.55-12.94,30.05C2,117.13-2.61,105.37,3.9,93.75c1,7.86,4.39,12.19,6.59,18.28A46.78,46.78,0,0,1,23.47,98.89Z" style="fill:#fff;fill-rule:evenodd"/><path d="M21.71,118c4.41,11.45-1.77,20.42-3.74,35.4C2,141.74-2.78,129.62,1.69,117.09c2.71,7.85,6.13,14.31,11.09,17.7Z" style="fill:#fff;fill-rule:evenodd"/><path d="M25.86,140.43c4.26,8.11,5.86,20.78,8.85,34C15.81,170,5.17,160.77,3.62,146.28c7.1,4.28,12.4,10.39,18.5,13.05C22.31,151.35,23,144.82,25.86,140.43Z" style="fill:#fff;fill-rule:evenodd"/><path d="M60.77,192.87c-10-9.61-10.1-26.05-23.35-30.7l3.69,16.2c-9.83-1.34-18.21-3.54-25-6.67C24.09,186.16,40.22,192.5,60.77,192.87Z" style="fill:#fff;fill-rule:evenodd"/><path d="M41.75,61.08c-4,9.31-12.82,14-23.44,19-1.08-13.42,3.3-23,12.19-29.32L27.86,65.71A38,38,0,0,1,41.75,61.08Z" style="fill:#fff;fill-rule:evenodd"/><rect x="106.31" y="117.29" width="2.32" height="83.3" style="fill:#fff"/><path d="M118.53,117.29c1.57,13.32,3.5,25.78,6,35.62,4,12,14.21,10.94,18.63-4l25.15-11.38c.38,13.21-3.44,27.93-15.13,34.11-16.64,8.81-30,5.41-42.69,23.47V117.29Z" style="fill:#fff;fill-rule:evenodd"/><path d="M96.36,117.29c-1.57,13.32-3.49,25.78-6,35.63-4,12-14.22,10.93-18.64-4L46.56,137.5c-.38,13.21,3.44,27.92,15.14,34.11,16.64,8.81,30,5.41,42.68,23.47V117.29Z" style="fill:#fff;fill-rule:evenodd"/><path d="M113.42,62.16c.78,9.19,1.58,19.23,2.49,29.39h-5.39V62.15Z" style="fill:#fff;fill-rule:evenodd"/><path d="M101.46,62.14c-.79,9.21-1.59,19.27-2.5,29.46h5.4V62.16Z" style="fill:#fff;fill-rule:evenodd"/><rect x="106.34" y="62.15" width="2.32" height="29.42" style="fill:#fff"/><path d="M143.81,96.25a9.26,9.26,0,0,0,1.72-.15,3.41,3.41,0,0,1,.91-.16,1.83,1.83,0,0,1,1.09.55,4.84,4.84,0,0,1,1.56,3.54,2,2,0,0,1-.44,1.34,1.83,1.83,0,0,1-2.32.14,3.88,3.88,0,0,1-.79-1,10.49,10.49,0,0,0-.59-.95.69.69,0,0,0-.59-.28c-.51,0-.77.45-.77,1.37v6.78c0,.74.1,1.2.29,1.37a4.51,4.51,0,0,0,1,.6,1,1,0,0,1,.72.94,1.37,1.37,0,0,1-.9,1.18,9,9,0,0,1-3.65.48c-3.5,0-5.26-.55-5.26-1.66q0-.5.21-.63a4.74,4.74,0,0,1,.82-.36,1.29,1.29,0,0,0,.78-.55,7.13,7.13,0,0,0,.34-2.34l.17-4.89V101a3.27,3.27,0,0,0-.19-1.46.55.55,0,0,0-.49-.3.68.68,0,0,0-.54.24c-.13.16-.37.47-.71.94a5.53,5.53,0,0,1-1,1.07,1.71,1.71,0,0,1-1.06.35,1.19,1.19,0,0,1-1-.48,1.7,1.7,0,0,1-.38-1.11,4.85,4.85,0,0,1,.45-1.93,5.58,5.58,0,0,1,1.12-1.71,1.85,1.85,0,0,1,1.27-.69s.32,0,.83.16a13.07,13.07,0,0,0,1.9.15Zm-20.28,10.63a8.65,8.65,0,0,0,.13,1.78,1.13,1.13,0,0,0,.34.71,1.24,1.24,0,0,0,.64.14c1.13,0,1.7-.67,1.7-2,0-1.7-.65-2.54-2-2.54a.87.87,0,0,0-.65.2.91.91,0,0,0-.21.61Zm0-5.4a3.22,3.22,0,0,0,.11,1c.06.18.24.27.53.27a1.39,1.39,0,0,0,1.28-.56,2.91,2.91,0,0,0,.36-1.58,3.29,3.29,0,0,0-.36-1.58,1.23,1.23,0,0,0-1.19-.65c-.31,0-.51.09-.59.28a2.7,2.7,0,0,0-.14,1Zm6.43,1c-.26.23-.4.43-.4.59a.31.31,0,0,0,.11.27,1.54,1.54,0,0,0,.36.22,4.33,4.33,0,0,1,1.1.66,4.44,4.44,0,0,1,1,1.16,3.1,3.1,0,0,1,.4,1.56,4.94,4.94,0,0,1-.58,2.34,4.6,4.6,0,0,1-1.92,1.86,7,7,0,0,1-3.42.73q-.77,0-2.1-.06c-.9,0-1.56-.05-2-.05s-1.26,0-2.27.05-1.77.06-2.28.06a1.73,1.73,0,0,1-1-.32,1,1,0,0,1-.45-.85.91.91,0,0,1,.46-.8,2.27,2.27,0,0,0,.76-.78A5,5,0,0,0,118,107l.24-6.37a3.39,3.39,0,0,0-.3-1.79,2.81,2.81,0,0,0-.89-.69.92.92,0,0,1-.57-.86,1.06,1.06,0,0,1,.5-.91,2,2,0,0,1,1.09-.32c.62,0,1.45,0,2.51.07s1.85.08,2.4.08c.34,0,.85,0,1.51-.08s1.19-.07,1.58-.07a7.33,7.33,0,0,1,3,.52A3.41,3.41,0,0,1,130.72,98a3.49,3.49,0,0,1,.46,1.77,3.89,3.89,0,0,1-.32,1.53A3.06,3.06,0,0,1,130,102.46Zm-29.51-2a12.71,12.71,0,0,0-1.22-1.35,2.59,2.59,0,0,0-.93-.53.83.83,0,0,1-.64-.86c0-.73.5-1.19,1.48-1.39a15.34,15.34,0,0,1,3.21-.31,14.55,14.55,0,0,1,2.85.27,2.87,2.87,0,0,1,1.28.55,1,1,0,0,1,.28.68,1.19,1.19,0,0,1-.08.46,1.33,1.33,0,0,1-.24.38,3,3,0,0,0-.24.31.77.77,0,0,0-.08.31,2.67,2.67,0,0,0,.64,1,16.54,16.54,0,0,0,1.36,1.52c.47.48.79.71.94.72s.49-.24.81-.72a10,10,0,0,0,.85-1.6,4,4,0,0,0,.37-1.15.48.48,0,0,0-.2-.42,3.29,3.29,0,0,0-.57-.29,2.73,2.73,0,0,1-.58-.32.55.55,0,0,1-.19-.45c0-.85,1.09-1.28,3.16-1.28h.53a6.42,6.42,0,0,1,2.46.34,1.1,1.1,0,0,1,.54,1,.69.69,0,0,1-.25.49,6,6,0,0,1-.72.5A5.5,5.5,0,0,0,114,100l-5,8.88q-1.94,3.42-4.93,3.42a3.77,3.77,0,0,1-1.79-.46,3.14,3.14,0,0,1-1.15-1.14,2.86,2.86,0,0,1-.4-1.43,2.61,2.61,0,0,1,.36-1.37,2.27,2.27,0,0,1,1-.87,2.8,2.8,0,0,1,1.28-.29,2,2,0,0,1,.79.15,1.6,1.6,0,0,1,.53.33,1.85,1.85,0,0,1,.32.38l.19.28a.83.83,0,0,0,.71.36c.38,0,.57-.14.57-.4a.54.54,0,0,0-.15-.33ZM84.19,102.7c0-1.54,0-2.6-.07-3.18a1.85,1.85,0,0,0-.33-.93,1.73,1.73,0,0,0-.66-.46,2.31,2.31,0,0,1-.56-.32.67.67,0,0,1-.15-.52,1,1,0,0,1,.52-.88,2.23,2.23,0,0,1,1.15-.31c.17,0,1.1,0,2.79.11s2.88.11,3.6.11,1.56,0,2.16-.09,1.11-.12,1.51-.19l.64-.1a1.9,1.9,0,0,1,1.31.63,4.92,4.92,0,0,1,1.06,1.58,4.72,4.72,0,0,1,.41,1.83,2.17,2.17,0,0,1-.42,1.32,1.38,1.38,0,0,1-1.15.56,1.77,1.77,0,0,1-1.26-.38,5.29,5.29,0,0,1-.87-1.22,4.26,4.26,0,0,0-1-1.25,2.55,2.55,0,0,0-1.6-.42,4.39,4.39,0,0,0-1,.08.94.94,0,0,0-.55.35,2,2,0,0,0-.32.91,11.12,11.12,0,0,0-.11,1.75c0,.37,0,1.13,0,2.29s0,1.75,0,1.77,0,.56,0,1.62.11,1.48.34,1.69a3.38,3.38,0,0,0,1.07.56.91.91,0,0,1,.73.89,1.06,1.06,0,0,1-.29.74,3,3,0,0,1-1.44.52,19.42,19.42,0,0,1-3.44.22,15.51,15.51,0,0,1-2.62-.16,2.19,2.19,0,0,1-1.18-.47,1.09,1.09,0,0,1-.31-.83.89.89,0,0,1,.17-.61,1.53,1.53,0,0,1,.53-.36,2.44,2.44,0,0,0,.59-.32,1.09,1.09,0,0,0,.37-.54,10,10,0,0,0,.29-2.92Zm-11.31,4.18a9.62,9.62,0,0,0,.12,1.78,1.13,1.13,0,0,0,.35.71,1.23,1.23,0,0,0,.63.14c1.14,0,1.7-.67,1.7-2,0-1.7-.65-2.54-1.94-2.54a.88.88,0,0,0-.66.2.91.91,0,0,0-.2.61Zm0-5.4a3.31,3.31,0,0,0,.1,1q.1.27.54.27a1.4,1.4,0,0,0,1.28-.56,3,3,0,0,0,.35-1.58,3.41,3.41,0,0,0-.35-1.58,1.25,1.25,0,0,0-1.19-.65c-.31,0-.51.09-.6.28a2.75,2.75,0,0,0-.13,1Zm6.43,1c-.27.23-.4.43-.4.59a.31.31,0,0,0,.1.27,2.17,2.17,0,0,0,.36.22,4.33,4.33,0,0,1,1.1.66,4.47,4.47,0,0,1,1,1.16,3.2,3.2,0,0,1,.4,1.56,5,5,0,0,1-.59,2.34,4.58,4.58,0,0,1-1.91,1.86,7,7,0,0,1-3.42.73c-.52,0-1.22,0-2.11-.06s-1.56-.05-2-.05-1.27,0-2.28.05-1.76.06-2.27.06a1.74,1.74,0,0,1-1-.32,1,1,0,0,1-.44-.85.89.89,0,0,1,.46-.8,2.27,2.27,0,0,0,.76-.78,5.19,5.19,0,0,0,.35-2.06l.24-6.37a3.27,3.27,0,0,0-.31-1.79,2.76,2.76,0,0,0-.88-.69.92.92,0,0,1-.57-.86,1.05,1.05,0,0,1,.49-.91,2,2,0,0,1,1.09-.32c.62,0,1.46,0,2.51.07s1.86.08,2.4.08c.35,0,.85,0,1.51-.08s1.2-.07,1.58-.07a7.27,7.27,0,0,1,3,.52A3.36,3.36,0,0,1,80.06,98a3.49,3.49,0,0,1,.46,1.77,3.89,3.89,0,0,1-.32,1.53A3.13,3.13,0,0,1,79.31,102.46Z" style="fill:#fff;fill-rule:evenodd"/><path d="M171.44,144.82a.29.29,0,0,1,.14-.17.25.25,0,0,1,.2,0,.39.39,0,0,1,.17.13l.23.3c.11.14.19.25.26.32a.65.65,0,0,0,.2.15.52.52,0,0,0,.25,0l.4-.1.37-.09a.34.34,0,0,1,.2,0,.23.23,0,0,1,.15.14.34.34,0,0,1,0,.22c-.05.16-.32.34-.8.56l-.52.22a.65.65,0,0,1-.39,0,.6.6,0,0,1-.29-.24c-.08-.12-.17-.28-.29-.5C171.48,145.28,171.39,145,171.44,144.82Zm-.52,1.52a.31.31,0,0,1,.14-.16.23.23,0,0,1,.21,0,.34.34,0,0,1,.16.12l.24.3c.1.14.19.25.25.32a.5.5,0,0,0,.2.15.67.67,0,0,0,.25,0l.4-.1.37-.1a.37.37,0,0,1,.21,0,.24.24,0,0,1,.14.14.28.28,0,0,1,0,.22c-.05.16-.32.35-.79.56-.2.09-.37.17-.52.22a.58.58,0,0,1-.39,0,.57.57,0,0,1-.3-.24,4.08,4.08,0,0,1-.28-.5C171,146.81,170.87,146.5,170.92,146.34ZM174,142.1c-.05.15,0,.23,0,.25a2,2,0,0,0,.53-.08l.26-.08a.19.19,0,0,0,.12-.11.14.14,0,0,0,0-.14.53.53,0,0,0-.13-.13.91.91,0,0,0-.16-.11l-.1-.08-.12-.09a.29.29,0,0,0-.1-.05.06.06,0,0,0-.08,0,.57.57,0,0,0-.06.15Zm.76-1.1c.18.16.33.28.44.36a4.17,4.17,0,0,0,.38.26,1.9,1.9,0,0,0,.42.18.76.76,0,0,1,.46.31.69.69,0,0,1,0,.59.79.79,0,0,1-.41.5,3.66,3.66,0,0,1-.78.29c-.1,0-.53.11-1.27.24s-1.23.22-1.47.25a.55.55,0,0,0-.24.09.5.5,0,0,0-.14.15.5.5,0,0,1-.11.13s-.08,0-.16,0a.28.28,0,0,1-.21-.25,1.08,1.08,0,0,1,0-.44,4.51,4.51,0,0,1,.13-.53c.09-.34.17-.59.23-.76a1.12,1.12,0,0,1,.21-.38.29.29,0,0,1,.29-.08.19.19,0,0,1,.13.09.54.54,0,0,1,0,.15,1.39,1.39,0,0,0,0,.15.11.11,0,0,0,.09.07.21.21,0,0,0,.21,0,.63.63,0,0,0,.16-.27c.05-.14.12-.37.22-.7a.88.88,0,0,0,.05-.39q0-.12-.21-.18c-.05,0-.09,0-.11,0a.44.44,0,0,0-.1.12.44.44,0,0,1-.11.12.21.21,0,0,1-.16,0c-.24-.07-.27-.39-.11-1a2.48,2.48,0,0,1,.21-.57c.07-.12.13-.2.19-.22a.27.27,0,0,1,.2,0,.17.17,0,0,1,.14.1s0,.12,0,.23a.53.53,0,0,0,.08.26,3.06,3.06,0,0,0,.52.51Zm2.59-2a2.82,2.82,0,0,0-.07.47.93.93,0,0,1,0,.25.51.51,0,0,1-.21.25,1.26,1.26,0,0,1-.47.2,1.1,1.1,0,0,1-.57,0,.51.51,0,0,1-.32-.2.48.48,0,0,1,.1-.62,1.06,1.06,0,0,1,.32-.15l.29-.09a.22.22,0,0,0,.11-.14c0-.14-.08-.24-.32-.29l-1.79-.42c-.2,0-.33,0-.38,0a1.23,1.23,0,0,0-.22.23.29.29,0,0,1-.3.13c-.12,0-.21-.13-.25-.31a2.38,2.38,0,0,1,.09-1c.22-.93.47-1.36.76-1.29.09,0,.14.05.16.09a1.41,1.41,0,0,1,0,.24.34.34,0,0,0,.1.24,1.88,1.88,0,0,0,.6.23l1.28.35.14,0a.91.91,0,0,0,.4,0,.15.15,0,0,0,.11-.11.22.22,0,0,0,0-.16,2.26,2.26,0,0,0-.21-.24,1.35,1.35,0,0,1-.22-.33.5.5,0,0,1,0-.3.36.36,0,0,1,.19-.23.44.44,0,0,1,.32,0,1.31,1.31,0,0,1,.48.23,1.58,1.58,0,0,1,.38.4.53.53,0,0,1,.11.39l-.09.2a2.87,2.87,0,0,0-.16.5Zm.4-5.45a.35.35,0,0,0,0-.2.37.37,0,0,0-.15,0l-.89-.12h-.16a.13.13,0,0,0-.09.07.49.49,0,0,0-.05.17.49.49,0,0,0,.14.43.73.73,0,0,0,.46.2.82.82,0,0,0,.35,0,.55.55,0,0,0,.27-.17A.59.59,0,0,0,177.75,133.52Zm-.09-1.63a.28.28,0,0,0,.22,0,.47.47,0,0,0,.14-.2.62.62,0,0,1,.12-.19s.09,0,.17,0a.23.23,0,0,1,.21.16.68.68,0,0,1,0,.32,1.22,1.22,0,0,1,0,.22,1.22,1.22,0,0,0,0,.22c0,.25-.06.49-.07.72s0,.43,0,.62,0,.29,0,.31a2.16,2.16,0,0,1-.16.58,1.72,1.72,0,0,1-.31.48,1.15,1.15,0,0,1-.46.3,1.19,1.19,0,0,1-.6.06,1.3,1.3,0,0,1-.56-.2,1.35,1.35,0,0,1-.39-.4,1.94,1.94,0,0,1-.2-.54,2.48,2.48,0,0,1,0-.61c0-.06,0-.15.05-.27l.05-.25c0-.06,0-.1-.09-.1l-.34-.05a.68.68,0,0,0-.42,0,.63.63,0,0,0-.2.2.22.22,0,0,1-.22.12c-.16,0-.26-.16-.28-.41a4,4,0,0,1,0-.77c.1-.75.27-1.11.54-1.08.07,0,.12,0,.14.07a.68.68,0,0,1,.08.17.39.39,0,0,0,.1.18.37.37,0,0,0,.23.09Zm.45-3.5a.42.42,0,0,0-.17-.39.82.82,0,0,0-.43-.17,2.75,2.75,0,0,0-.54,0,5.43,5.43,0,0,0-.67.16,2,2,0,0,0-.56.27.61.61,0,0,0-.25.4.47.47,0,0,0,.16.41.81.81,0,0,0,.45.16,2.91,2.91,0,0,0,.79-.06,2.4,2.4,0,0,0,.83-.29A.63.63,0,0,0,178.11,128.39ZM177,126.25a2,2,0,0,1,.85.24,2.17,2.17,0,0,1,.66.54,2.2,2.2,0,0,1,.39.78,2.33,2.33,0,0,1,.09.92,2.3,2.3,0,0,1-.3,1,2.13,2.13,0,0,1-.63.67,2.51,2.51,0,0,1-.76.36,2.28,2.28,0,0,1-.71.07,1.91,1.91,0,0,1-.85-.25,2.09,2.09,0,0,1-.64-.58,2.32,2.32,0,0,1-.38-.79,2.43,2.43,0,0,1-.08-.89,2.29,2.29,0,0,1,.23-.87,2.14,2.14,0,0,1,1.25-1.11A2.14,2.14,0,0,1,177,126.25Zm1.49-3.1a.4.4,0,0,0-.1-.12l-.19-.06-.4,0-1.59,0a1,1,0,0,0-.46,0,.64.64,0,0,0-.19.18.29.29,0,0,1-.24.12c-.18,0-.3-.13-.35-.39a4,4,0,0,1-.07-.79,2.94,2.94,0,0,1,.11-.74c.06-.24.18-.36.35-.35a.27.27,0,0,1,.25.19.45.45,0,0,0,.09.16s.07,0,.15.08l.36.06.73,0,.93,0,.41,0c.08,0,.13,0,.15-.06a.73.73,0,0,0,.1-.14.76.76,0,0,1,.1-.15.17.17,0,0,1,.13,0c.2,0,.33.16.39.46a3.78,3.78,0,0,1,.08.89s0,.2,0,.51,0,.54,0,.73,0,.34,0,.58v.61c0,.72-.17,1.07-.45,1.07a.31.31,0,0,1-.28-.2.4.4,0,0,0-.1-.16.53.53,0,0,0-.25-.07c-.13,0-.35,0-.66,0l-1.56,0a.65.65,0,0,0-.22,0,.29.29,0,0,0-.14.15.73.73,0,0,1-.11.15.21.21,0,0,1-.15,0,.41.41,0,0,1-.31-.22,2.47,2.47,0,0,1-.1-1c0-.69.16-1,.43-1a.28.28,0,0,1,.2.07l.12.16a.45.45,0,0,0,.25.15,2.41,2.41,0,0,0,.59.07l1.3,0a1.9,1.9,0,0,0,.56,0,.28.28,0,0,0,.18-.13,1.12,1.12,0,0,0,0-.38A1.73,1.73,0,0,0,178.48,123.15Zm.59-4.63a1.7,1.7,0,0,1,0,.46,3.59,3.59,0,0,1-.11.41,1,1,0,0,0-.07.27.35.35,0,0,0,0,.14.35.35,0,0,1,0,.12.39.39,0,0,1-.11.28.84.84,0,0,1-.34.25,1.78,1.78,0,0,1-.55.13.68.68,0,0,1-.45-.12.52.52,0,0,1-.22-.39.37.37,0,0,1,.08-.3,3.62,3.62,0,0,1,.37-.3,1.59,1.59,0,0,0,.4-.43,1.1,1.1,0,0,0,.1-.58.54.54,0,0,0-.15-.35.69.69,0,0,0-.3-.2.89.89,0,0,0-.36,0,2.14,2.14,0,0,0-.63.13,1.66,1.66,0,0,0-.5.3,1.28,1.28,0,0,0-.33.44,1.16,1.16,0,0,0-.08.56,1.33,1.33,0,0,0,.12.52,1.92,1.92,0,0,0,.23.31c.09.09.14.16.14.2a.21.21,0,0,1-.1.2.46.46,0,0,1-.23.09,1.22,1.22,0,0,1-.34-.06,1.15,1.15,0,0,1-.36-.2.39.39,0,0,1-.16-.26,1,1,0,0,0-.13-.3c-.08-.16-.15-.31-.21-.46a2.06,2.06,0,0,1-.11-.54,2.29,2.29,0,0,1,.21-1.16,2.25,2.25,0,0,1,.74-.9,2.08,2.08,0,0,1,1.07-.39,1.92,1.92,0,0,1,.86.13,2.39,2.39,0,0,1,.74.47,2.65,2.65,0,0,1,.52.72A2.56,2.56,0,0,1,179.07,118.52Zm-3.54-2.79a.44.44,0,0,0-.21.06.4.4,0,0,0-.13.17.91.91,0,0,1-.08.17.23.23,0,0,1-.14.06.37.37,0,0,1-.34-.17,2.29,2.29,0,0,1-.25-1c-.09-.68,0-1,.27-1.07a.28.28,0,0,1,.21,0l.14.14a.49.49,0,0,0,.27.1,2,2,0,0,0,.6,0l.21-.06a.16.16,0,0,0,.07-.11s0-.13,0-.24-.06-.43-.08-.53a.29.29,0,0,0-.11-.17.48.48,0,0,0-.25,0l-.22,0a1,1,0,0,0-.44.12.58.58,0,0,0-.16.21.27.27,0,0,1-.22.15c-.18,0-.32-.08-.41-.33a3.61,3.61,0,0,1-.18-.77,3.14,3.14,0,0,1,0-.75c0-.25.12-.38.3-.4a.28.28,0,0,1,.27.16l.11.14a.53.53,0,0,0,.16.06,2.21,2.21,0,0,0,.37,0l.73-.08.91-.12a2.19,2.19,0,0,0,.41-.09.34.34,0,0,0,.15-.07s0-.08.07-.16a.4.4,0,0,1,.08-.16.14.14,0,0,1,.11-.07c.2,0,.35.11.46.39a3.83,3.83,0,0,1,.22.87,2.82,2.82,0,0,1,0,.65c0,.21-.12.33-.27.35a.26.26,0,0,1-.2,0,.79.79,0,0,1-.16-.16.4.4,0,0,0-.12-.11l-.2,0-.39,0c-.13,0-.2.05-.23.1a.34.34,0,0,0,0,.22l0,.16,0,.3a.9.9,0,0,0,.06.26c0,.06,0,.09.08.09h.15a1.61,1.61,0,0,0,.56-.12.27.27,0,0,0,.15-.15.67.67,0,0,1,.1-.18.18.18,0,0,1,.15-.07.32.32,0,0,1,.21,0q.1,0,.21.3a2.79,2.79,0,0,1,.17.76c.09.71,0,1.09-.28,1.12a.3.3,0,0,1-.31-.14.39.39,0,0,0-.12-.15.68.68,0,0,0-.26,0,5.64,5.64,0,0,0-.65.06Zm-.46-7.43c0,.15.08.22.13.21a1.5,1.5,0,0,0,.43-.32c.08-.08.15-.14.19-.19a.19.19,0,0,0,.05-.17.13.13,0,0,0-.1-.09.67.67,0,0,0-.19,0l-.18,0-.13,0-.15,0H175s-.06,0-.06.06a.62.62,0,0,0,0,.17Zm.14-1.33.57.1a2.15,2.15,0,0,0,.45,0,1.75,1.75,0,0,0,.46,0,.78.78,0,0,1,.55.05.69.69,0,0,1,.32.5.79.79,0,0,1-.12.63,3.64,3.64,0,0,1-.54.63c-.08.08-.41.35-1,.83s-1,.79-1.17.93a.57.57,0,0,0-.17.19.65.65,0,0,0,0,.2.46.46,0,0,1,0,.16.18.18,0,0,1-.14.07.3.3,0,0,1-.31-.11,1.12,1.12,0,0,1-.21-.39c0-.15-.1-.33-.15-.52-.08-.35-.13-.61-.16-.78a1.25,1.25,0,0,1,0-.44.28.28,0,0,1,.21-.21c.07,0,.12,0,.15,0a.29.29,0,0,1,.11.11.44.44,0,0,0,.1.12s.06,0,.11,0a.21.21,0,0,0,.17-.12.59.59,0,0,0,0-.31q0-.23-.15-.72a1.05,1.05,0,0,0-.14-.37.26.26,0,0,0-.27,0s-.08,0-.09.07a1,1,0,0,0,0,.15.34.34,0,0,1,0,.16.16.16,0,0,1-.13.08c-.24.06-.43-.2-.56-.78a2.89,2.89,0,0,1-.09-.6.5.5,0,0,1,.06-.29.29.29,0,0,1,.17-.1.19.19,0,0,1,.17,0,1.26,1.26,0,0,1,.14.18.57.57,0,0,0,.2.19,3.8,3.8,0,0,0,.71.2Zm.68-3c0-.1-.06-.16-.1-.18a.27.27,0,0,0-.15,0l-.87.25a.26.26,0,0,0-.14.06.11.11,0,0,0-.06.09.41.41,0,0,0,0,.18.5.5,0,0,0,.29.35.85.85,0,0,0,.5,0,1,1,0,0,0,.32-.16.61.61,0,0,0,.19-.26A.65.65,0,0,0,175.89,103.92Zm-.72-1.47a.28.28,0,0,0,.19-.13.63.63,0,0,0,0-.23c0-.1,0-.18,0-.23a.2.2,0,0,1,.15-.11.21.21,0,0,1,.25.07.67.67,0,0,1,.15.29s0,.12.06.21,0,.17.05.22c.07.24.14.47.22.68s.14.41.21.59.1.27.11.29a1.77,1.77,0,0,1,.08.6,1.5,1.5,0,0,1-.1.56,1.08,1.08,0,0,1-.3.46,1.41,1.41,0,0,1-1.12.32,1.17,1.17,0,0,1-.51-.22,1.46,1.46,0,0,1-.4-.42,2,2,0,0,1-.25-.55,2.07,2.07,0,0,1-.06-.26c0-.12,0-.2-.05-.25a.09.09,0,0,0-.12-.07l-.34.1a.67.67,0,0,0-.37.2.57.57,0,0,0-.1.26.22.22,0,0,1-.16.19c-.16,0-.3,0-.42-.26a3.85,3.85,0,0,1-.28-.72c-.21-.73-.19-1.13.07-1.2a.22.22,0,0,1,.16,0l.13.13a.39.39,0,0,0,.17.13.43.43,0,0,0,.25,0Zm0-2.79a2.32,2.32,0,0,0,.19.42,1.28,1.28,0,0,1,.12.22.47.47,0,0,1-.05.33,1.28,1.28,0,0,1-.77.71.55.55,0,0,1-.38,0,.45.45,0,0,1-.24-.29.39.39,0,0,1,0-.3,1,1,0,0,1,.19-.29,2,2,0,0,0,.19-.23.2.2,0,0,0,0-.18c-.05-.13-.19-.16-.42-.08l-1.75.59a.58.58,0,0,0-.33.19,1.4,1.4,0,0,0-.06.32.31.31,0,0,1-.18.27.39.39,0,0,1-.38-.13,2.28,2.28,0,0,1-.44-.9c-.31-.9-.32-1.4,0-1.5q.13,0,.18,0a1.61,1.61,0,0,1,.17.18c.07.09.14.15.21.15a1.74,1.74,0,0,0,.63-.11l1.27-.38.14,0a.94.94,0,0,0,.36-.18.14.14,0,0,0,0-.15.18.18,0,0,0-.1-.12l-.31-.1a1.22,1.22,0,0,1-.36-.15.48.48,0,0,1-.18-.24.32.32,0,0,1,0-.3.5.5,0,0,1,.25-.2,1.47,1.47,0,0,1,.53,0,1.64,1.64,0,0,1,.54.14.52.52,0,0,1,.29.27,2.14,2.14,0,0,1,0,.23,3.31,3.31,0,0,0,.13.5Zm-3.86-7.31a.46.46,0,0,0-.33-.26.89.89,0,0,0-.46.06,3,3,0,0,0-.46.29,3.73,3.73,0,0,0-.52.46,1.7,1.7,0,0,0-.36.51.57.57,0,0,0,0,.46.44.44,0,0,0,.33.28.72.72,0,0,0,.47-.07A3.38,3.38,0,0,0,171.26,93,.66.66,0,0,0,171.35,92.35Zm-2-1.34a2.24,2.24,0,0,1,.86-.2A2.21,2.21,0,0,1,171,91a2.3,2.3,0,0,1,.72.49,2.76,2.76,0,0,1,.52.76,2.34,2.34,0,0,1,.22,1,2.39,2.39,0,0,1-.23.9,2.66,2.66,0,0,1-.5.67,2.22,2.22,0,0,1-.58.41,1.94,1.94,0,0,1-.87.18,2,2,0,0,1-.84-.19A2.67,2.67,0,0,1,168.26,94a2.27,2.27,0,0,1-.21-.87,2.1,2.1,0,0,1,.56-1.57A2.16,2.16,0,0,1,169.34,91Zm-1.69-3.54c.37-.21.61-.36.74-.45a.49.49,0,0,0,.17-.2.53.53,0,0,0,0-.22,1.31,1.31,0,0,1,0-.17.17.17,0,0,1,.11-.11.28.28,0,0,1,.28,0,.69.69,0,0,1,.22.23s.14.27.35.67.37.7.47.87a4.72,4.72,0,0,0,.31.49,2.79,2.79,0,0,0,.25.33l.11.14a.5.5,0,0,1,0,.39,1.37,1.37,0,0,1-.23.47,1.21,1.21,0,0,1-.38.34.52.52,0,0,1-.36.08.37.37,0,0,1-.29-.19.46.46,0,0,1-.08-.35,1.28,1.28,0,0,1,.17-.37,1.39,1.39,0,0,0,.16-.4.68.68,0,0,0-.12-.44,1.16,1.16,0,0,0-.15-.21.22.22,0,0,0-.15-.08.52.52,0,0,0-.26,0l-.43.22-.54.31-.41.24-.38.22c-.22.13-.34.23-.35.31a.75.75,0,0,0,0,.33.24.24,0,0,1-.11.29.28.28,0,0,1-.22,0,.81.81,0,0,1-.31-.27,5.42,5.42,0,0,1-.52-.78,4.66,4.66,0,0,1-.32-.63.7.7,0,0,1-.05-.35.3.3,0,0,1,.16-.18.21.21,0,0,1,.16,0,.31.31,0,0,1,.16.07.77.77,0,0,0,.15.1.35.35,0,0,0,.18,0,2.86,2.86,0,0,0,.73-.33Zm-1-3.43a.43.43,0,0,0-.36-.21.81.81,0,0,0-.45.13,2.65,2.65,0,0,0-.41.35,3.67,3.67,0,0,0-.44.52,1.73,1.73,0,0,0-.28.56.54.54,0,0,0,0,.47.42.42,0,0,0,.37.22.71.71,0,0,0,.45-.13,3.67,3.67,0,0,0,.6-.52,2.57,2.57,0,0,0,.49-.74A.65.65,0,0,0,166.61,84Zm-2.18-1a2.42,2.42,0,0,1,.83-.32,2,2,0,0,1,.85,0,2.18,2.18,0,0,1,.78.38,2.58,2.58,0,0,1,.63.68,2.14,2.14,0,0,1,.36,1,2.31,2.31,0,0,1-.09.92,2.5,2.5,0,0,1-.4.74,2.14,2.14,0,0,1-.52.49,2,2,0,0,1-.83.31,2.09,2.09,0,0,1-.86-.08,2.23,2.23,0,0,1-.78-.4,2.74,2.74,0,0,1-.61-.66,2.45,2.45,0,0,1-.33-.83,2.08,2.08,0,0,1,0-.86,1.92,1.92,0,0,1,.33-.78A2.23,2.23,0,0,1,164.43,83ZM163,83a.43.43,0,0,0-.15.16.34.34,0,0,0,0,.21.66.66,0,0,1,0,.19s0,.08-.08.13a.38.38,0,0,1-.38,0,2.32,2.32,0,0,1-.71-.69c-.43-.54-.53-.89-.32-1.06a.26.26,0,0,1,.2-.07l.19,0a.54.54,0,0,0,.29,0,2.3,2.3,0,0,0,.5-.33.48.48,0,0,0,.16-.16.13.13,0,0,0,0-.12,1.55,1.55,0,0,0-.14-.2l-.34-.41c-.07-.06-.13-.1-.19-.09a.48.48,0,0,0-.22.11l-.17.14c-.18.14-.29.25-.31.33a.68.68,0,0,0,0,.26.28.28,0,0,1-.11.25c-.14.11-.31.08-.51-.08a3.71,3.71,0,0,1-.56-.56,3.11,3.11,0,0,1-.39-.65c-.11-.22-.09-.39.05-.49a.27.27,0,0,1,.31,0l.17.07a.54.54,0,0,0,.17,0,1.51,1.51,0,0,0,.31-.19c.14-.09.33-.24.59-.43l.72-.58.31-.28c.05-.07.08-.11.08-.14a.77.77,0,0,0,0-.18.52.52,0,0,1,0-.17.14.14,0,0,1,.06-.12c.16-.12.36-.09.59.1a3.88,3.88,0,0,1,.64.64,2.23,2.23,0,0,1,.33.55c.09.19.07.34-.05.43a.28.28,0,0,1-.18.08.6.6,0,0,1-.23-.06l-.16,0a.62.62,0,0,0-.18.08l-.32.23c-.1.08-.15.15-.15.2a.37.37,0,0,0,.09.21l.1.12.19.24a1.35,1.35,0,0,0,.18.2s.09,0,.12,0a.5.5,0,0,0,.13-.09,2.14,2.14,0,0,0,.42-.38.36.36,0,0,0,.05-.21.82.82,0,0,1,0-.21.24.24,0,0,1,.09-.14.35.35,0,0,1,.2-.07.55.55,0,0,1,.34.15,3.25,3.25,0,0,1,.54.56q.66.86.33,1.11a.3.3,0,0,1-.34,0,.38.38,0,0,0-.17-.06.58.58,0,0,0-.24.11c-.12.07-.29.2-.54.39Zm-4.27-5.27a3.41,3.41,0,0,0,.26-.54c.09-.21.15-.34.17-.4s.06-.19.08-.25a.17.17,0,0,0,0-.17c0-.05-.12-.06-.24,0a1.11,1.11,0,0,0-.3.07l-.42.1-.48.15-.05,0a.12.12,0,0,0,0,.13.28.28,0,0,0,.08.15l.66.76a.33.33,0,0,0,.14.1.17.17,0,0,0,.14,0A.43.43,0,0,0,158.77,77.73ZM156.31,76a.3.3,0,0,1,.17,0l.21.08a.73.73,0,0,0,.26.06,3.72,3.72,0,0,0,.72-.16l.86-.25.55-.17.42-.18a2,2,0,0,0,.39-.25.75.75,0,0,1,.51-.22.72.72,0,0,1,.51.29.82.82,0,0,1,.2.62,4.23,4.23,0,0,1-.19.81l-.28.64-.49,1.08-.36.8a.41.41,0,0,0,0,.25c0,.1,0,.18,0,.26a.38.38,0,0,1-.08.23,3,3,0,0,1-.39.41.47.47,0,0,1-.35.14.39.39,0,0,1-.32-.17.41.41,0,0,1-.14-.3,1.83,1.83,0,0,1,.07-.38.49.49,0,0,0,0-.36,9.12,9.12,0,0,0-.89-1.12,7.75,7.75,0,0,0-.9-.94.68.68,0,0,0-.35-.06,2.72,2.72,0,0,1-.42,0,.54.54,0,0,1-.29-.18.34.34,0,0,1-.08-.29.47.47,0,0,1,.16-.28A2.15,2.15,0,0,1,156.31,76Zm.61-3.66a.39.39,0,0,0-.4-.11.71.71,0,0,0-.4.23,2.17,2.17,0,0,0-.32.43,4.48,4.48,0,0,0-.31.62,2.06,2.06,0,0,0-.14.61.54.54,0,0,0,.15.44.44.44,0,0,0,.41.13.76.76,0,0,0,.41-.24,3.14,3.14,0,0,0,.46-.65,2.81,2.81,0,0,0,.31-.83A.67.67,0,0,0,156.92,72.32Zm-2.36-.49a2.41,2.41,0,0,1,.73-.51,1.94,1.94,0,0,1,.83-.15,2.13,2.13,0,0,1,.85.18,2.72,2.72,0,0,1,.77.51,2.28,2.28,0,0,1,.59.87,2.13,2.13,0,0,1,.12.92,2.42,2.42,0,0,1-.59,1.41,2,2,0,0,1-.74.5,2.23,2.23,0,0,1-.85.13,2.59,2.59,0,0,1-.85-.21,2.52,2.52,0,0,1-.75-.5,2.28,2.28,0,0,1-.52-.73,2,2,0,0,1-.21-.83,2.06,2.06,0,0,1,.14-.84A2.18,2.18,0,0,1,154.56,71.83ZM152,70.65a3.11,3.11,0,0,0-.29.39.27.27,0,0,0-.05.21.28.28,0,0,0,.1.14c.23.2.47.17.71-.11s.32-.64.05-.87a.22.22,0,0,0-.17-.07.2.2,0,0,0-.15.09Zm1-1.1a.87.87,0,0,0-.16.22s0,.1.06.15a.41.41,0,0,0,.37.12.89.89,0,0,0,.35-.27.85.85,0,0,0,.21-.38.35.35,0,0,0-.13-.35.17.17,0,0,0-.17-.05.68.68,0,0,0-.21.19Zm1.15,1.34a.27.27,0,0,0-.19,0,.13.13,0,0,0,0,.07l0,.11a1.51,1.51,0,0,1,.11.34,1.14,1.14,0,0,1,0,.41.89.89,0,0,1-.19.39,1.45,1.45,0,0,1-.54.37,1.16,1.16,0,0,1-.72,0,1.93,1.93,0,0,1-.84-.45l-.42-.39-.4-.37-.48-.39-.47-.39a.51.51,0,0,1-.16-.25.28.28,0,0,1,.3-.34.61.61,0,0,0,.3,0,1.24,1.24,0,0,0,.43-.36L152,68.44a.88.88,0,0,0,.25-.42.58.58,0,0,0-.06-.3.24.24,0,0,1,0-.27.26.26,0,0,1,.26-.1.47.47,0,0,1,.28.12l.51.47.47.44.33.25.34.27a2.08,2.08,0,0,1,.53.64.89.89,0,0,1,.08.56.88.88,0,0,1-.22.44.93.93,0,0,1-.33.26A1,1,0,0,1,154.12,70.89Zm-5.35-6.4a2.39,2.39,0,0,0,.4.23,1.25,1.25,0,0,1,.23.11.52.52,0,0,1,.16.3,1.39,1.39,0,0,1,0,.5,1.23,1.23,0,0,1-.22.53.53.53,0,0,1-.3.22.41.41,0,0,1-.36-.09.41.41,0,0,1-.18-.24,1,1,0,0,1,0-.35,1.67,1.67,0,0,0,0-.3.19.19,0,0,0-.08-.16c-.12-.08-.24,0-.39.18L147,66.92c-.11.17-.16.28-.15.35a1.31,1.31,0,0,0,.13.29.29.29,0,0,1,0,.33.41.41,0,0,1-.39.12,2.52,2.52,0,0,1-.88-.47c-.78-.55-1.08-1-.91-1.2.06-.07.11-.11.15-.1l.24.05a.38.38,0,0,0,.26,0,2.3,2.3,0,0,0,.44-.47l.81-1,.08-.12a.79.79,0,0,0,.19-.35.14.14,0,0,0-.06-.15.22.22,0,0,0-.16,0l-.3.1a1.29,1.29,0,0,1-.38.08.41.41,0,0,1-.3-.09.36.36,0,0,1-.14-.26.46.46,0,0,1,.09-.3,1.27,1.27,0,0,1,.4-.36,1.68,1.68,0,0,1,.52-.2.48.48,0,0,1,.39,0,1,1,0,0,1,.16.16,3.66,3.66,0,0,0,.4.33Zm-4.33-2.85c.2.11.37.2.49.25l.31.11.14,0a.34.34,0,0,1,.16.26,1,1,0,0,1,0,.38,1,1,0,0,1-.13.34.56.56,0,0,1-.21.22.26.26,0,0,1-.27,0,.27.27,0,0,1-.15-.2l0-.26a.57.57,0,0,0-.14-.3,1.43,1.43,0,0,0-.46-.35,1.66,1.66,0,0,0-.37-.18.25.25,0,0,0-.21,0,.85.85,0,0,0-.19.27l-.15.26a.85.85,0,0,0-.11.23.11.11,0,0,0,0,.12.9.9,0,0,0,.23.15.23.23,0,0,0,.22,0,.62.62,0,0,0,.19-.18.62.62,0,0,1,.19-.18.21.21,0,0,1,.2,0c.13.08.17.21.11.41a3.46,3.46,0,0,1-.24.57,3.29,3.29,0,0,1-.23.33,1.13,1.13,0,0,1-.3.28.28.28,0,0,1-.3,0c-.07,0-.11-.09-.1-.13a.7.7,0,0,1,.06-.23.47.47,0,0,0,0-.28.42.42,0,0,0-.21-.21.18.18,0,0,0-.23,0,.94.94,0,0,0-.19.25,3.45,3.45,0,0,0-.26.52.3.3,0,0,0,0,.25,1.18,1.18,0,0,0,.31.22l.12.08a1.34,1.34,0,0,0,.61.21.68.68,0,0,0,.41-.09l.32-.17a.28.28,0,0,1,.28,0,.25.25,0,0,1,.12.21.48.48,0,0,1-.06.26,1.72,1.72,0,0,1-.32.37,1.63,1.63,0,0,1-.43.29c-.14.07-.24.09-.31.05l-.21-.16-.42-.28-2.14-1.23c-.23-.13-.31-.27-.22-.42a.23.23,0,0,1,.23-.11.94.94,0,0,0,.26,0,.61.61,0,0,0,.25-.26c.3-.45.5-.75.57-.88l.48-.9a1,1,0,0,0,.13-.39.38.38,0,0,0-.05-.22l-.09-.17a.23.23,0,0,1,0-.21c.11-.18.31-.19.61,0a.29.29,0,0,0,.1.06s.06.05.08.05Zm-3.66-2.06a2.2,2.2,0,0,0,.43.18,1.46,1.46,0,0,1,.24.07.56.56,0,0,1,.2.27,1.5,1.5,0,0,1,.08.5,1.23,1.23,0,0,1-.15.55.54.54,0,0,1-.27.27.43.43,0,0,1-.36,0,.41.41,0,0,1-.22-.21,1.48,1.48,0,0,1-.06-.35,1.63,1.63,0,0,0,0-.3.18.18,0,0,0-.1-.14c-.13-.07-.25,0-.36.23l-.84,1.64a.6.6,0,0,0-.1.37,1.74,1.74,0,0,0,.17.27.28.28,0,0,1,.06.32.37.37,0,0,1-.36.17,2.53,2.53,0,0,1-.94-.33c-.85-.44-1.21-.79-1.07-1.06,0-.08.08-.12.13-.12a1.09,1.09,0,0,1,.24,0,.41.41,0,0,0,.26,0,2.1,2.1,0,0,0,.37-.53l.65-1.16.06-.13a1,1,0,0,0,.14-.38.17.17,0,0,0-.08-.13.18.18,0,0,0-.16,0l-.29.14a1.15,1.15,0,0,1-.37.14.45.45,0,0,1-.3,0,.32.32,0,0,1-.18-.24.51.51,0,0,1,.05-.32,1.3,1.3,0,0,1,.35-.41,1.29,1.29,0,0,1,.48-.27.48.48,0,0,1,.39,0l.18.14a3.08,3.08,0,0,0,.44.27Zm-4.66,1.3a.63.63,0,0,0-.05.21.3.3,0,0,0,.08.19l.1.16a.21.21,0,0,1,0,.15.38.38,0,0,1-.33.2,2.23,2.23,0,0,1-.94-.28c-.63-.29-.89-.55-.78-.8a.32.32,0,0,1,.23-.18.71.71,0,0,0,.28-.1A1.3,1.3,0,0,0,135,60c0-.06.06-.13.1-.22a1,1,0,0,0,.08-.17c.06-.12.05-.19,0-.21l-.09,0a1.46,1.46,0,0,0-.42.07c-.2.06-.38.13-.56.2a.67.67,0,0,0-.3.21.62.62,0,0,0-.06.21.33.33,0,0,0,0,.14.24.24,0,0,1,0,.12.31.31,0,0,1,0,.17c-.12.27-.5.27-1.14,0a3.42,3.42,0,0,1-.64-.39c-.2-.15-.26-.3-.19-.46a.27.27,0,0,1,.28-.15l.18,0a.37.37,0,0,0,.13-.11,1.74,1.74,0,0,0,.19-.31c.08-.15.19-.37.32-.66s.3-.67.37-.85a2.78,2.78,0,0,0,.15-.39.31.31,0,0,0,0-.16l-.1-.15a.76.76,0,0,1-.1-.14.17.17,0,0,1,0-.14c.08-.18.27-.24.57-.19a3.76,3.76,0,0,1,.86.28,2.77,2.77,0,0,1,.55.33c.17.13.22.27.15.41a.25.25,0,0,1-.13.15.58.58,0,0,1-.23.06l-.14,0a.19.19,0,0,0-.1.1,1.81,1.81,0,0,0-.14.26c0,.08-.08.18-.13.29l-.1.19a.24.24,0,0,0,0,.15s0,.06.1.09a.75.75,0,0,0,.35,0l.52-.18a3,3,0,0,0,.34-.16.4.4,0,0,0,.11-.12.24.24,0,0,0,0-.15.34.34,0,0,0,0-.14.53.53,0,0,1-.06-.14.24.24,0,0,1,0-.15.45.45,0,0,1,.15-.18.47.47,0,0,1,.33,0,2.78,2.78,0,0,1,.67.23c.65.29.92.57.8.83a.3.3,0,0,1-.28.18.47.47,0,0,0-.19,0,.52.52,0,0,0-.16.2,4.6,4.6,0,0,0-.29.59ZM131,55.25a1.42,1.42,0,0,1,.41.2,4,4,0,0,1,.34.27.9.9,0,0,0,.21.16l.15,0,.12,0a.4.4,0,0,1,.22.21,1.18,1.18,0,0,1,.09.41,1.6,1.6,0,0,1-.1.55.65.65,0,0,1-.28.38.51.51,0,0,1-.45,0,.36.36,0,0,1-.24-.18c0-.08-.08-.24-.14-.46a1.42,1.42,0,0,0-.23-.54,1,1,0,0,0-.49-.31.58.58,0,0,0-.39,0,.75.75,0,0,0-.3.2,1,1,0,0,0-.18.32,2.34,2.34,0,0,0-.12.62,1.65,1.65,0,0,0,.08.59,1.25,1.25,0,0,0,.28.47,1.16,1.16,0,0,0,.48.3,1.18,1.18,0,0,0,.52.08,1.12,1.12,0,0,0,.38-.09c.12,0,.2-.06.24,0a.21.21,0,0,1,.14.16.42.42,0,0,1,0,.25.84.84,0,0,1-.19.29,1,1,0,0,1-.31.25.36.36,0,0,1-.31,0h-.33a4.38,4.38,0,0,1-.51,0,1.82,1.82,0,0,1-.53-.1,2.31,2.31,0,0,1-1-.66,2.28,2.28,0,0,1-.54-1,2.21,2.21,0,0,1,.06-1.14,2,2,0,0,1,.46-.74,2.36,2.36,0,0,1,.72-.49,2.61,2.61,0,0,1,.87-.19A2.14,2.14,0,0,1,131,55.25Zm-4.74-.73c-.1,0-.17,0-.2,0a.3.3,0,0,0-.08.14l-.24.87a.49.49,0,0,0,0,.15.15.15,0,0,0,.06.1.34.34,0,0,0,.16.07.49.49,0,0,0,.45-.06.81.81,0,0,0,.26-.43,1.06,1.06,0,0,0,0-.35.66.66,0,0,0-.12-.3A.56.56,0,0,0,126.25,54.52Zm-1.63-.17a.27.27,0,0,0,0-.22.53.53,0,0,0-.17-.16.77.77,0,0,1-.18-.15.21.21,0,0,1,0-.18.22.22,0,0,1,.2-.18.71.71,0,0,1,.32,0l.21.07.21.07.7.17.61.13.3.06a2.36,2.36,0,0,1,.56.24,1.54,1.54,0,0,1,.42.38,1.18,1.18,0,0,1,.23.51,1.2,1.2,0,0,1,0,.59,1.35,1.35,0,0,1-.28.53,1.23,1.23,0,0,1-.46.32,1.47,1.47,0,0,1-.56.11,2.16,2.16,0,0,1-.61-.07l-.25-.09-.24-.08a.08.08,0,0,0-.12.06l-.09.34a.63.63,0,0,0,0,.42.65.65,0,0,0,.17.22.23.23,0,0,1,.08.24c0,.16-.19.23-.44.21a3.36,3.36,0,0,1-.76-.13q-1.09-.31-1-.69a.21.21,0,0,1,.09-.14l.18,0a.52.52,0,0,0,.2-.08.41.41,0,0,0,.12-.22Zm-2.54-1.5a3.88,3.88,0,0,0,.55.07h.47a.34.34,0,0,1,.24.19,1.13,1.13,0,0,1,.1.37,1.39,1.39,0,0,1,0,.36.55.55,0,0,1-.13.29.25.25,0,0,1-.25.08.26.26,0,0,1-.21-.13,1.75,1.75,0,0,1-.11-.24.63.63,0,0,0-.23-.23,1.93,1.93,0,0,0-.56-.18,1.7,1.7,0,0,0-.41,0,.22.22,0,0,0-.18.11,1,1,0,0,0-.09.32l-.06.29a.91.91,0,0,0,0,.26.13.13,0,0,0,.08.1,1.11,1.11,0,0,0,.26.06.23.23,0,0,0,.22,0,.88.88,0,0,0,.12-.24A.7.7,0,0,1,122,54a.21.21,0,0,1,.2-.05c.15,0,.23.14.24.35a2.62,2.62,0,0,1,0,.62,2.24,2.24,0,0,1-.1.39,1,1,0,0,1-.18.36.28.28,0,0,1-.28.13c-.08,0-.13,0-.14-.09a1.25,1.25,0,0,1,0-.24.54.54,0,0,0-.06-.27.4.4,0,0,0-.27-.13.2.2,0,0,0-.22.07.89.89,0,0,0-.09.3,2.7,2.7,0,0,0-.07.58.26.26,0,0,0,.09.23,1.18,1.18,0,0,0,.36.11l.15,0a1.36,1.36,0,0,0,.64,0,.72.72,0,0,0,.36-.22l.24-.27a.27.27,0,0,1,.26-.1.26.26,0,0,1,.19.16.63.63,0,0,1,0,.27,1.56,1.56,0,0,1-.18.45,1.74,1.74,0,0,1-.3.42c-.11.12-.2.17-.28.15l-.25-.08a4.37,4.37,0,0,0-.49-.12l-2.43-.43c-.26-.05-.38-.16-.35-.32a.22.22,0,0,1,.18-.18,1.38,1.38,0,0,0,.24-.11.72.72,0,0,0,.15-.33c.13-.53.21-.88.24-1,0,0,0-.33.14-1a1.06,1.06,0,0,0,0-.41.39.39,0,0,0-.12-.19l-.14-.13a.21.21,0,0,1,0-.21c0-.21.22-.28.56-.22l.11,0,.1,0Zm-5.58,2a2.24,2.24,0,0,0,0,.48c0,.11,0,.17.07.2a.34.34,0,0,0,.17.06c.3,0,.48-.12.52-.48s-.09-.71-.43-.75a.26.26,0,0,0-.19,0,.24.24,0,0,0-.07.16Zm.18-1.46a.83.83,0,0,0,0,.28s0,.08.13.09a.38.38,0,0,0,.37-.11.82.82,0,0,0,.14-.41.8.8,0,0,0,0-.44.33.33,0,0,0-.3-.21.14.14,0,0,0-.17,0,.84.84,0,0,0-.07.27Zm1.7.49a.27.27,0,0,0-.13.14s0,.06,0,.08l.09.07a1.27,1.27,0,0,1,.28.22,1.17,1.17,0,0,1,.22.34.92.92,0,0,1,0,.44,1.23,1.23,0,0,1-.24.61,1.27,1.27,0,0,1-.57.43,1.93,1.93,0,0,1-.95.08l-.57-.09-.53-.08-.62-.06-.61-.07a.45.45,0,0,1-.27-.12.26.26,0,0,1-.09-.24.26.26,0,0,1,.15-.2.69.69,0,0,0,.24-.18,1.66,1.66,0,0,0,.16-.55l.28-1.71a.79.79,0,0,0,0-.49.7.7,0,0,0-.21-.21.26.26,0,0,1-.13-.26.28.28,0,0,1,.17-.22.45.45,0,0,1,.3,0l.68.1.64.11.41,0,.43,0a2,2,0,0,1,.8.24.89.89,0,0,1,.38.42,1,1,0,0,1,.06.49,1,1,0,0,1-.14.4A.74.74,0,0,1,118.38,53.89Zm-4.48,1a.68.68,0,0,0,0,.22.39.39,0,0,0,.14.15.7.7,0,0,1,.15.12.21.21,0,0,1,0,.15c0,.12-.09.21-.24.29a2.18,2.18,0,0,1-1,.06c-.68-.05-1-.22-1-.49a.28.28,0,0,1,.16-.24.71.71,0,0,0,.22-.2,1,1,0,0,0,.12-.51c0-.07,0-.15,0-.25s0-.15,0-.18,0-.2-.08-.2h-.09A1.21,1.21,0,0,0,112,54a3.5,3.5,0,0,0-.46.39c-.13.13-.21.23-.21.29a.69.69,0,0,0,0,.22.27.27,0,0,0,.09.12.28.28,0,0,1,.09.1.37.37,0,0,1,0,.17c0,.3-.38.42-1.08.37a3,3,0,0,1-.74-.15c-.24-.07-.35-.19-.33-.37s.08-.18.21-.24l.16-.07a.39.39,0,0,0,.09-.15,2.86,2.86,0,0,0,.07-.36c0-.16,0-.41.07-.73s0-.72.06-.92,0-.34,0-.42a.28.28,0,0,0,0-.15.67.67,0,0,0-.14-.11l-.14-.1a.16.16,0,0,1,0-.13c0-.2.17-.32.47-.37a3.88,3.88,0,0,1,.9,0,2.61,2.61,0,0,1,.63.13c.2.06.3.18.28.33a.25.25,0,0,1-.06.19,1,1,0,0,1-.2.13.49.49,0,0,0-.13.08.33.33,0,0,0-.06.12c0,.06,0,.16,0,.29s0,.2,0,.32,0,.19,0,.21a.32.32,0,0,0,0,.16s.06,0,.13,0a.88.88,0,0,0,.31-.17,4.32,4.32,0,0,0,.42-.35,3.73,3.73,0,0,0,.27-.26.29.29,0,0,0,.06-.16.19.19,0,0,0,0-.14.39.39,0,0,0-.09-.11.47.47,0,0,1-.1-.11.35.35,0,0,1,0-.16.53.53,0,0,1,.08-.22c0-.06.14-.1.3-.13a2.53,2.53,0,0,1,.71,0c.71.06,1.06.23,1,.51a.31.31,0,0,1-.21.27.57.57,0,0,0-.16.09.58.58,0,0,0-.09.24c0,.13,0,.35-.07.66Zm-5.14-.35a.62.62,0,0,0,0,.22.36.36,0,0,0,.16.13l.16.11a.23.23,0,0,1,0,.14.39.39,0,0,1-.21.32,2.36,2.36,0,0,1-1,.16c-.68,0-1-.11-1-.39A.25.25,0,0,1,107,55l.15-.13a.57.57,0,0,0,.14-.26,2.39,2.39,0,0,0,0-.6.61.61,0,0,0,0-.22.16.16,0,0,0-.11-.07H107l-.53,0a.3.3,0,0,0-.18.09.51.51,0,0,0,0,.25v.21a1,1,0,0,0,.08.46.66.66,0,0,0,.19.18.29.29,0,0,1,.13.24c0,.18-.12.3-.37.36a3.34,3.34,0,0,1-.78.11,3.21,3.21,0,0,1-.76-.07q-.36-.07-.36-.33a.26.26,0,0,1,.18-.26l.15-.09a.34.34,0,0,0,.07-.16,1.52,1.52,0,0,0,0-.37c0-.16,0-.4,0-.73s0-.72,0-.92a2.81,2.81,0,0,0,0-.42.37.37,0,0,0-.06-.15l-.15-.08-.16-.1a.17.17,0,0,1,0-.12c0-.2.14-.34.43-.41a3.43,3.43,0,0,1,.9-.13,2.28,2.28,0,0,1,.64.06c.21,0,.31.15.31.3a.22.22,0,0,1,0,.19.47.47,0,0,1-.18.15.38.38,0,0,0-.11.11.4.4,0,0,0,0,.19c0,.09,0,.22,0,.4a.4.4,0,0,0,.07.24.44.44,0,0,0,.23.05h.46l.27,0s.08,0,.09-.08a.3.3,0,0,0,0-.15,2.51,2.51,0,0,0-.06-.57.35.35,0,0,0-.14-.17.71.71,0,0,1-.17-.11.21.21,0,0,1-.06-.16.39.39,0,0,1,.06-.2.68.68,0,0,1,.32-.18,2.86,2.86,0,0,1,.78-.09c.72,0,1.08.11,1.09.39a.32.32,0,0,1-.18.29c-.07,0-.13.07-.15.11a.49.49,0,0,0-.06.25,6.13,6.13,0,0,0,0,.66Zm-9-1.64a2.54,2.54,0,0,0-.35-.34.67.67,0,0,0-.27-.13.23.23,0,0,1-.19-.22c0-.2.11-.33.37-.41a5.42,5.42,0,0,1,.87-.15,4.58,4.58,0,0,1,.78,0,.72.72,0,0,1,.35.12.23.23,0,0,1,.09.18.28.28,0,0,1,0,.13.27.27,0,0,1-.06.1l0,.09a.2.2,0,0,0,0,.09s.07.13.19.27.26.26.4.38.23.18.27.17.13-.07.21-.21a3.18,3.18,0,0,0,.2-.45,1,1,0,0,0,.07-.32.13.13,0,0,0-.06-.11l-.16-.07a.4.4,0,0,1-.16-.07.19.19,0,0,1-.07-.12c0-.23.27-.37.83-.41h.15a1.68,1.68,0,0,1,.67,0,.3.3,0,0,1,.17.26.2.2,0,0,1-.06.14l-.18.15a1.42,1.42,0,0,0-.31.48L102.25,55A1.53,1.53,0,0,1,101,56a1,1,0,0,1-.49-.09.73.73,0,0,1-.34-.28.77.77,0,0,1-.14-.38.78.78,0,0,1,.07-.38.64.64,0,0,1,.24-.25.8.8,0,0,1,.34-.11.53.53,0,0,1,.22,0,.36.36,0,0,1,.15.08.38.38,0,0,1,.09.09l.06.08a.24.24,0,0,0,.2.08q.15,0,.15-.12a.14.14,0,0,0-.05-.09Zm-5.64-.56a1.43,1.43,0,0,1-.62,0,1.54,1.54,0,0,1-.48-.24.69.69,0,0,1-.24-.3.15.15,0,0,1,0-.14.21.21,0,0,1,.13-.07,1.37,1.37,0,0,1,.3.06,2.4,2.4,0,0,0,.38.1,1,1,0,0,0,.38,0,1.15,1.15,0,0,0,.37-.12,2.79,2.79,0,0,0,.32-.23,1.28,1.28,0,0,1,.26-.16.26.26,0,0,1,.15,0,.19.19,0,0,1,.09.12.69.69,0,0,1-.13.36,1.35,1.35,0,0,1-.37.39A1.43,1.43,0,0,1,94.12,52.34Zm2.53,3.09a.73.73,0,0,0,.07.21.37.37,0,0,0,.18.11l.17.07a.23.23,0,0,1,.07.14.4.4,0,0,1-.15.35,2.33,2.33,0,0,1-.95.3c-.67.12-1,0-1.08-.22a.32.32,0,0,1,.08-.28.71.71,0,0,0,.17-.24,1.07,1.07,0,0,0,0-.53l0-.24c0-.1,0-.16,0-.19s-.06-.18-.13-.17l-.08,0a1.35,1.35,0,0,0-.3.3,4.85,4.85,0,0,0-.35.48.65.65,0,0,0-.13.34.56.56,0,0,0,.07.21.31.31,0,0,0,.11.09.35.35,0,0,1,.11.08.27.27,0,0,1,.06.16c.06.29-.26.5-.95.62a2.71,2.71,0,0,1-.75.05c-.25,0-.38-.1-.41-.28a.27.27,0,0,1,.14-.28l.14-.11a.32.32,0,0,0,0-.17,1.61,1.61,0,0,0,0-.37q0-.24-.12-.72c-.07-.41-.13-.71-.17-.91a3.21,3.21,0,0,0-.1-.4c0-.08,0-.12-.08-.14a.52.52,0,0,0-.17-.06l-.16-.07a.19.19,0,0,1-.07-.12c0-.19.09-.35.36-.47a3.79,3.79,0,0,1,.87-.26,2.32,2.32,0,0,1,.64,0c.21,0,.33.1.36.25a.31.31,0,0,1,0,.2.61.61,0,0,1-.16.17c-.05,0-.09.08-.1.11a.24.24,0,0,0,0,.14,1.37,1.37,0,0,0,0,.29c0,.09,0,.2,0,.31a1.94,1.94,0,0,1,0,.22.2.2,0,0,0,.06.14s.07,0,.13,0a.73.73,0,0,0,.26-.24l.33-.44c.1-.16.16-.27.19-.33a.32.32,0,0,0,0-.16.24.24,0,0,0-.07-.13.31.31,0,0,0-.12-.09.62.62,0,0,1-.12-.08.26.26,0,0,1-.06-.14.38.38,0,0,1,0-.24c0-.06.11-.13.25-.2a2.61,2.61,0,0,1,.68-.19c.71-.13,1.09-.05,1.14.23a.3.3,0,0,1-.13.31.36.36,0,0,0-.14.13.56.56,0,0,0,0,.26c0,.13,0,.35.09.65ZM88,57.11a.78.78,0,0,0-.27-.43.47.47,0,0,0-.45-.06c-.11,0-.17.06-.19.11a.31.31,0,0,0,0,.21l.23.84a.22.22,0,0,0,.08.13.28.28,0,0,0,.2,0,.54.54,0,0,0,.42-.45A1,1,0,0,0,88,57.11Zm1.67-1.66a6.1,6.1,0,0,0-.24-.69.78.78,0,0,0-.16-.26.81.81,0,0,0-.2-.08l-.19-.08a.24.24,0,0,1-.09-.14c0-.17.07-.33.36-.47a5.63,5.63,0,0,1,.82-.31,3.43,3.43,0,0,1,.76-.14c.22,0,.36.07.41.24a.19.19,0,0,1,0,.15.64.64,0,0,1-.12.14.51.51,0,0,0-.12.16.7.7,0,0,0,0,.39c0,.18.1.42.18.7l.16.57c.07.25.13.44.18.58s.09.23.12.29a.22.22,0,0,0,.08.1l.11,0,.17,0a.33.33,0,0,1,.12.05.25.25,0,0,1,.08.12.36.36,0,0,1,0,.23c0,.08-.14.16-.32.26a4.29,4.29,0,0,1-.86.32c-.64.18-1,.15-1.07-.1a.26.26,0,0,1,0-.15l.1-.13a.31.31,0,0,0,.09-.13A2.52,2.52,0,0,0,89.82,56Zm-4.32.39a.41.41,0,0,0-.12-.22.44.44,0,0,0-.21-.08l-.18,0a.22.22,0,0,1-.08-.13q-.12-.37,1-.69a3.28,3.28,0,0,1,.75-.13q.38,0,.45.21a.25.25,0,0,1-.08.24.87.87,0,0,0-.18.22.8.8,0,0,0,0,.42l.1.34a.08.08,0,0,0,.12.06l.23-.08.26-.09a2.18,2.18,0,0,1,.61-.08,1.75,1.75,0,0,1,.56.12,1.2,1.2,0,0,1,.45.32,1.3,1.3,0,0,1,.29.53,1.22,1.22,0,0,1,0,.76,1.33,1.33,0,0,1-.45.58,2.41,2.41,0,0,1-.72.35l-.52.12q-.56.12-1.08.27l-.22.07-.21.07a.7.7,0,0,1-.32,0,.23.23,0,0,1-.19-.18c0-.08,0-.14,0-.18a.92.92,0,0,1,.17-.15.73.73,0,0,0,.18-.16.29.29,0,0,0,0-.23Zm-.59,2.55a.62.62,0,0,0,.12.19.3.3,0,0,0,.19.07l.19,0a.24.24,0,0,1,.09.12.36.36,0,0,1-.08.37,2.09,2.09,0,0,1-.87.48q-1,.39-1.11,0a.23.23,0,0,1,0-.2,1.4,1.4,0,0,1,.09-.17.52.52,0,0,0,0-.3,2.55,2.55,0,0,0-.16-.57.58.58,0,0,0-.11-.19.12.12,0,0,0-.12,0,.9.9,0,0,0-.23.08,3.42,3.42,0,0,0-.49.21.23.23,0,0,0-.14.15.39.39,0,0,0,0,.24l.08.2a1,1,0,0,0,.23.4.53.53,0,0,0,.24.11.25.25,0,0,1,.2.17c.07.17,0,.33-.22.48a4.19,4.19,0,0,1-.7.37,3.14,3.14,0,0,1-.73.19c-.24,0-.39,0-.46-.19a.27.27,0,0,1,.09-.3l.11-.14a.3.3,0,0,0,0-.17,2.06,2.06,0,0,0-.09-.36c0-.16-.13-.39-.25-.69s-.27-.67-.35-.86a1.81,1.81,0,0,0-.18-.37.26.26,0,0,0-.11-.12l-.17,0a.61.61,0,0,1-.17,0,.14.14,0,0,1-.09-.09c-.08-.19,0-.37.26-.54a3.57,3.57,0,0,1,.79-.43,2.43,2.43,0,0,1,.63-.16c.21,0,.34,0,.4.18a.26.26,0,0,1,0,.19,1,1,0,0,1-.12.21.21.21,0,0,0-.07.14.34.34,0,0,0,0,.19,2.44,2.44,0,0,0,.13.38c0,.11.09.18.15.2a.39.39,0,0,0,.22,0l.15,0,.28-.12a.92.92,0,0,0,.24-.11c.05,0,.07-.07.07-.1a.34.34,0,0,0,0-.15,2.33,2.33,0,0,0-.25-.51.34.34,0,0,0-.19-.12.64.64,0,0,1-.2-.05.22.22,0,0,1-.11-.12.38.38,0,0,1,0-.21.62.62,0,0,1,.24-.28,2.92,2.92,0,0,1,.7-.36c.67-.26,1-.26,1.16,0a.31.31,0,0,1-.07.33.4.4,0,0,0-.11.15.71.71,0,0,0,0,.26c0,.13.11.34.22.62ZM80,60.29a.48.48,0,0,0,.12.19.33.33,0,0,0,.19.07.44.44,0,0,1,.19,0s.07.05.1.11a.37.37,0,0,1-.06.37,2.15,2.15,0,0,1-.84.53c-.63.28-1,.3-1.11,0a.21.21,0,0,1,0-.2l.09-.18a.51.51,0,0,0,0-.29,2.06,2.06,0,0,0-.19-.57.39.39,0,0,0-.12-.18.11.11,0,0,0-.12,0l-.23.09-.47.24c-.08.05-.13.1-.14.15a.42.42,0,0,0,.06.24l.09.2a1.11,1.11,0,0,0,.25.39.75.75,0,0,0,.24.09.28.28,0,0,1,.21.17c.08.16,0,.33-.19.48a3.57,3.57,0,0,1-.68.4,3.38,3.38,0,0,1-.72.24c-.25,0-.4,0-.47-.17a.27.27,0,0,1,.07-.31.77.77,0,0,0,.1-.15.29.29,0,0,0,0-.17,3.07,3.07,0,0,0-.11-.35c-.06-.15-.15-.38-.29-.67s-.3-.66-.39-.84a3.76,3.76,0,0,0-.19-.37.28.28,0,0,0-.12-.11l-.17,0-.18,0a.28.28,0,0,1-.1-.09c-.08-.19,0-.37.24-.56a4,4,0,0,1,.77-.46,2.45,2.45,0,0,1,.62-.19c.21,0,.34,0,.41.15a.39.39,0,0,1,0,.2,1.08,1.08,0,0,1-.11.21.37.37,0,0,0-.07.14,1,1,0,0,0,0,.2l.15.36a.34.34,0,0,0,.16.2.37.37,0,0,0,.23-.05l.14-.06.28-.13a.88.88,0,0,0,.23-.13s.07-.07.06-.1a.41.41,0,0,0,0-.15,2.1,2.1,0,0,0-.28-.49.35.35,0,0,0-.19-.11.7.7,0,0,1-.21,0,.19.19,0,0,1-.11-.12.3.3,0,0,1,0-.21A.65.65,0,0,1,77.4,58a3.15,3.15,0,0,1,.68-.39c.66-.29,1-.31,1.16-.06a.31.31,0,0,1,0,.34.35.35,0,0,0-.1.15.59.59,0,0,0,0,.26c0,.13.13.33.25.61ZM41.94,98.47l-.81-.3a.5.5,0,0,0-.27,0,.41.41,0,0,0-.18.12.49.49,0,0,1-.14.11s-.08,0-.15,0a.28.28,0,0,1-.17-.22.69.69,0,0,1,0-.32l.3-.7c.19-.42.32-.71.39-.9s.15-.39.2-.55.08-.29.1-.4a.63.63,0,0,1,0-.17.53.53,0,0,1,.28-.27,1.36,1.36,0,0,1,.51-.11,1.12,1.12,0,0,1,.5.08.54.54,0,0,1,.29.24.34.34,0,0,1,0,.34.47.47,0,0,1-.22.28,1.36,1.36,0,0,1-.39.1,1.39,1.39,0,0,0-.42.13.7.7,0,0,0-.26.36.87.87,0,0,0-.08.25.26.26,0,0,0,0,.17.59.59,0,0,0,.2.17,3,3,0,0,0,.43.2l.58.23.45.17.41.16c.23.1.39.12.46.08a.65.65,0,0,0,.25-.21.23.23,0,0,1,.3-.09.27.27,0,0,1,.16.14,1,1,0,0,1,0,.42,6.21,6.21,0,0,1-.29.89,5.11,5.11,0,0,1-.3.64.68.68,0,0,1-.24.26.29.29,0,0,1-.24,0,.22.22,0,0,1-.14-.1.4.4,0,0,1,0-.17,1.64,1.64,0,0,0,0-.18.26.26,0,0,0-.1-.15,2.61,2.61,0,0,0-.71-.36Zm1.75-3.4a2.35,2.35,0,0,1-.72-.51,2.18,2.18,0,0,1-.42-.74,2.08,2.08,0,0,1-.11-.86,2.49,2.49,0,0,1,.23-.9,2.19,2.19,0,0,1,.63-.84,2,2,0,0,1,.82-.42,2.21,2.21,0,0,1,.84-.07,2.33,2.33,0,0,1,.69.16,2.1,2.1,0,0,1,.71.53,2.06,2.06,0,0,1,.4.76,2.34,2.34,0,0,1,.09.88,2.44,2.44,0,0,1-.23.87,2.09,2.09,0,0,1-.51.73,2,2,0,0,1-.71.47,2,2,0,0,1-.84.15A2.31,2.31,0,0,1,43.69,95.07Zm-.32-2.39a.4.4,0,0,0,0,.42.76.76,0,0,0,.35.31,3.28,3.28,0,0,0,.51.15,3.84,3.84,0,0,0,.68.09,2.06,2.06,0,0,0,.63-.07.54.54,0,0,0,.36-.29.44.44,0,0,0,0-.43.66.66,0,0,0-.36-.31,3.33,3.33,0,0,0-.76-.22,2.67,2.67,0,0,0-.89,0A.66.66,0,0,0,43.37,92.68Zm1.8-5.34a1.88,1.88,0,0,1,.28-.37l.33-.27a1.18,1.18,0,0,0,.21-.18.78.78,0,0,0,0-.14.83.83,0,0,1,0-.12.43.43,0,0,1,.25-.17,1.16,1.16,0,0,1,.42,0,1.84,1.84,0,0,1,.53.2.72.72,0,0,1,.31.36.5.5,0,0,1-.05.44.34.34,0,0,1-.23.2,2.73,2.73,0,0,1-.47,0,1.51,1.51,0,0,0-.57.12,1.07,1.07,0,0,0-.41.43.56.56,0,0,0-.08.37.85.85,0,0,0,.14.34,1,1,0,0,0,.28.23,1.75,1.75,0,0,0,.59.24,1.64,1.64,0,0,0,.58,0,1.2,1.2,0,0,0,.52-.18,1.32,1.32,0,0,0,.39-.42,1.18,1.18,0,0,0,.18-.49,1.26,1.26,0,0,0,0-.39c0-.13,0-.21,0-.24a.2.2,0,0,1,.19-.11.41.41,0,0,1,.24.06.78.78,0,0,1,.25.24,1,1,0,0,1,.18.36.37.37,0,0,1,0,.31,1.35,1.35,0,0,0-.06.32,3.71,3.71,0,0,1-.09.5,1.91,1.91,0,0,1-.21.5,2.33,2.33,0,0,1-.83.85,2.23,2.23,0,0,1-1.12.32,2,2,0,0,1-1.1-.28,1.81,1.81,0,0,1-.64-.59,2.11,2.11,0,0,1-.34-.8,2.42,2.42,0,0,1,0-.89A2.4,2.4,0,0,1,45.17,87.34Zm2.61-2a4.06,4.06,0,0,0-.49.09.66.66,0,0,0-.25.13.23.23,0,0,1-.29,0c-.17-.11-.2-.29-.11-.54a4.12,4.12,0,0,1,.4-.78,3.27,3.27,0,0,1,.49-.61.77.77,0,0,1,.31-.22.25.25,0,0,1,.19,0,.3.3,0,0,1,.1.09.28.28,0,0,1,0,.11.3.3,0,0,0,0,.1l.05.06a1,1,0,0,0,.33,0,4.85,4.85,0,0,0,.55-.09.66.66,0,0,0,.3-.11c0-.05,0-.15,0-.29a3.09,3.09,0,0,0-.24-.43A1.19,1.19,0,0,0,49,82.7a.15.15,0,0,0-.13,0l-.15.09a.48.48,0,0,1-.16.08.13.13,0,0,1-.13,0c-.19-.13-.13-.44.17-.91l.08-.12a1.6,1.6,0,0,1,.44-.51.29.29,0,0,1,.31,0,.2.2,0,0,1,.08.13,1.88,1.88,0,0,1,0,.24,1.62,1.62,0,0,0,.2.53L51,84.67A1.49,1.49,0,0,1,51,86.29a.9.9,0,0,1-.36.34.77.77,0,0,1-.43.1.67.67,0,0,1-.39-.12.63.63,0,0,1-.26-.28.7.7,0,0,1-.06-.35.74.74,0,0,1,.12-.33.78.78,0,0,1,.15-.16.43.43,0,0,1,.16-.07l.13,0h.09a.25.25,0,0,0,.19-.11c0-.09,0-.15,0-.19a.15.15,0,0,0-.1,0ZM51.69,84a.23.23,0,0,1,0-.16,1.16,1.16,0,0,1,0-.22.6.6,0,0,0,0-.26,3.56,3.56,0,0,0-.25-.69l-.36-.83c-.1-.22-.18-.4-.24-.52a3.84,3.84,0,0,0-.22-.39,1.72,1.72,0,0,0-.3-.35.76.76,0,0,1-.28-.49.66.66,0,0,1,.22-.54.8.8,0,0,1,.59-.27,3.78,3.78,0,0,1,.83.08c.07,0,.29.08.66.19l1.13.35.85.26a.34.34,0,0,0,.24,0l.25-.07a.3.3,0,0,1,.24,0,2.51,2.51,0,0,1,.46.32.56.56,0,0,1,.19.34.45.45,0,0,1-.13.34.41.41,0,0,1-.28.17,1.92,1.92,0,0,1-.39,0,.45.45,0,0,0-.35,0,8.82,8.82,0,0,0-1,1,7.72,7.72,0,0,0-.81,1,.58.58,0,0,0,0,.36,2.41,2.41,0,0,1,0,.41.49.49,0,0,1-.14.32.34.34,0,0,1-.28.11.44.44,0,0,1-.3-.12A1.84,1.84,0,0,1,51.69,84Zm1.42-2.66c-.16-.06-.35-.13-.57-.19l-.41-.11-.27,0a.17.17,0,0,0-.16,0,.27.27,0,0,0,0,.24,1.79,1.79,0,0,0,.11.29L52,82a3.4,3.4,0,0,0,.21.46l0,0a.15.15,0,0,0,.14,0,.41.41,0,0,0,.14-.1l.67-.75a.3.3,0,0,0,.08-.16.13.13,0,0,0,0-.13Zm1.28-3.46c-.1-.22-.19-.39-.25-.52a3.21,3.21,0,0,0-.23-.38,1.5,1.5,0,0,0-.31-.35.74.74,0,0,1-.28-.48.65.65,0,0,1,.21-.54.82.82,0,0,1,.58-.29,4.28,4.28,0,0,1,.83.07l1.26.32c.73.19,1.21.32,1.44.4a.48.48,0,0,0,.44-.06.29.29,0,0,1,.15-.06s.08,0,.14.06a.28.28,0,0,1,.09.32,1,1,0,0,1-.19.4,3.82,3.82,0,0,1-.33.43c-.24.27-.41.46-.54.59a1,1,0,0,1-.35.25.26.26,0,0,1-.3,0,.2.2,0,0,1-.08-.13.55.55,0,0,1,0-.16.33.33,0,0,0,0-.14.1.1,0,0,0,0-.1.23.23,0,0,0-.21-.07.57.57,0,0,0-.25.17c-.11.11-.27.29-.5.55a1,1,0,0,0-.21.33c0,.08,0,.16.12.25a.11.11,0,0,0,.1,0,.45.45,0,0,0,.14-.07l.16-.06a.19.19,0,0,1,.14.06c.19.16.09.47-.3.91a2.83,2.83,0,0,1-.43.43c-.12.09-.2.13-.27.12a.27.27,0,0,1-.18-.07c-.06-.06-.09-.1-.09-.15A2.19,2.19,0,0,1,55,79.7a.54.54,0,0,0,0-.27,3.37,3.37,0,0,0-.26-.68Zm1.15-.67c.11-.12.14-.19.1-.23a1.74,1.74,0,0,0-.51-.15,1.76,1.76,0,0,0-.27,0,.18.18,0,0,0-.16,0,.13.13,0,0,0,0,.14.75.75,0,0,0,.07.18l.09.16a1.34,1.34,0,0,1,.06.12l.08.13.06.09a.06.06,0,0,0,.09,0,.66.66,0,0,0,.12-.12Zm1.31-3.74a.31.31,0,0,0-.2-.11.59.59,0,0,0-.23.07.66.66,0,0,1-.22.08.18.18,0,0,1-.16-.08.22.22,0,0,1-.06-.26.87.87,0,0,1,.18-.26,1.47,1.47,0,0,1,.17-.15,1.23,1.23,0,0,0,.16-.15q.27-.25.51-.51l.42-.46.2-.23a2.11,2.11,0,0,1,.5-.36,1.48,1.48,0,0,1,.54-.17,1.28,1.28,0,0,1,.55.06,1.18,1.18,0,0,1,.49.33,1.27,1.27,0,0,1,.36,1.06,1.64,1.64,0,0,1-.19.55,2.06,2.06,0,0,1-.37.48l-.2.17-.2.17a.08.08,0,0,0,0,.13l.24.25c.15.16.27.24.35.24a.66.66,0,0,0,.27,0,.22.22,0,0,1,.25,0c.12.12.1.28,0,.49a3.91,3.91,0,0,1-.5.59c-.55.52-.91.69-1.1.5s-.07-.1-.06-.15a.62.62,0,0,1,.05-.18.39.39,0,0,0,0-.21.41.41,0,0,0-.13-.21Zm1-1.32a.34.34,0,0,0-.11.16s0,.08.08.14l.62.65.12.1a.11.11,0,0,0,.11,0,.48.48,0,0,0,.15-.1.49.49,0,0,0,.17-.42.82.82,0,0,0-.23-.44,1.12,1.12,0,0,0-.29-.21.59.59,0,0,0-.32,0A.55.55,0,0,0,57.81,72.19Zm3-3.71a1.47,1.47,0,0,1,.39-.26,2.37,2.37,0,0,1,.4-.15.75.75,0,0,0,.25-.11.36.36,0,0,0,.1-.11.36.36,0,0,1,.08-.09.37.37,0,0,1,.29-.08.89.89,0,0,1,.4.13,1.55,1.55,0,0,1,.43.36.68.68,0,0,1,.18.43.52.52,0,0,1-.19.41.38.38,0,0,1-.28.12,4.6,4.6,0,0,1-.47-.12,1.55,1.55,0,0,0-.58-.07,1,1,0,0,0-.52.27.53.53,0,0,0-.2.32.77.77,0,0,0,0,.37.87.87,0,0,0,.18.31,2.33,2.33,0,0,0,.48.42,1.6,1.6,0,0,0,.54.23,1.28,1.28,0,0,0,.55,0,1.07,1.07,0,0,0,.5-.27,1.29,1.29,0,0,0,.34-.4,1.39,1.39,0,0,0,.12-.38c0-.12,0-.2.07-.22a.2.2,0,0,1,.22,0,.46.46,0,0,1,.21.13,1,1,0,0,1,.16.31,1.13,1.13,0,0,1,0,.4.37.37,0,0,1-.11.29,1.11,1.11,0,0,0-.17.29l-.24.44a1.93,1.93,0,0,1-.37.4,2.3,2.3,0,0,1-2.22.47,2,2,0,0,1-.95-.63,1.92,1.92,0,0,1-.41-.77A2.12,2.12,0,0,1,60,70a2.56,2.56,0,0,1,.27-.85A2.39,2.39,0,0,1,60.83,68.48ZM65,65.25a2.1,2.1,0,0,0,.34-.32,1.56,1.56,0,0,1,.17-.18.49.49,0,0,1,.33-.07,1.34,1.34,0,0,1,.92.5.48.48,0,0,1,.13.35.4.4,0,0,1-.18.32.42.42,0,0,1-.29.11,1.44,1.44,0,0,1-.34-.09,1.64,1.64,0,0,0-.28-.1.18.18,0,0,0-.18,0c-.11.08-.08.22.07.42l1.14,1.44c.12.16.22.24.29.25a1.6,1.6,0,0,0,.32,0,.26.26,0,0,1,.31.08.38.38,0,0,1,0,.4,2.45,2.45,0,0,1-.7.71c-.75.59-1.22.77-1.4.53a.21.21,0,0,1-.07-.17l.12-.21a.34.34,0,0,0,.07-.25,1.91,1.91,0,0,0-.32-.56l-.78-1.07-.09-.11a1.06,1.06,0,0,0-.29-.29.14.14,0,0,0-.15,0,.18.18,0,0,0-.08.13c0,.06,0,.17,0,.33a1.19,1.19,0,0,1,0,.39.45.45,0,0,1-.16.25.33.33,0,0,1-.3.06A.44.44,0,0,1,63.3,68a1.31,1.31,0,0,1-.23-.49,1.51,1.51,0,0,1,0-.55.51.51,0,0,1,.16-.36,1,1,0,0,1,.2-.11,2.91,2.91,0,0,0,.43-.28Zm5.55-1.68a.3.3,0,0,0,0,.19s0,.05.06.05h.12a1.33,1.33,0,0,1,.35,0,1.2,1.2,0,0,1,.39.13.74.74,0,0,1,.32.29,1.39,1.39,0,0,1,.21.62,1.26,1.26,0,0,1-.17.71,1.94,1.94,0,0,1-.67.67l-.49.29-.47.28-.51.35-.51.35a.47.47,0,0,1-.28.07.26.26,0,0,1-.23-.13.25.25,0,0,1,0-.25.68.68,0,0,0,.06-.29,1.42,1.42,0,0,0-.22-.52l-.88-1.49a1,1,0,0,0-.33-.36.76.76,0,0,0-.31,0,.25.25,0,0,1-.25-.11.3.3,0,0,1,0-.29.55.55,0,0,1,.2-.23l.59-.35.55-.33c.08-.06.2-.13.34-.24a3.07,3.07,0,0,1,.35-.25,1.9,1.9,0,0,1,.77-.33.92.92,0,0,1,.56.07,1,1,0,0,1,.36.34.92.92,0,0,1,.15.4A.71.71,0,0,1,70.52,63.57Zm-1.61.71a1,1,0,0,0,.17.22.14.14,0,0,0,.17,0,.37.37,0,0,0,.21-.31.77.77,0,0,0-.15-.41.86.86,0,0,0-.32-.31.32.32,0,0,0-.36,0c-.07.05-.11.1-.1.16a.87.87,0,0,0,.12.25Zm.79,1.24a3.92,3.92,0,0,0,.29.39.35.35,0,0,0,.19.11.32.32,0,0,0,.16-.06c.26-.17.29-.4.1-.71s-.53-.49-.82-.3a.27.27,0,0,0-.12.15.2.2,0,0,0,0,.16Zm3-5.17a5.06,5.06,0,0,0,.47-.3,2.08,2.08,0,0,0,.25-.21l.1-.1a.34.34,0,0,1,.31,0,.93.93,0,0,1,.31.22,1.35,1.35,0,0,1,.23.28.56.56,0,0,1,.08.3.24.24,0,0,1-.14.23.26.26,0,0,1-.24,0l-.24-.11a.57.57,0,0,0-.33,0,1.73,1.73,0,0,0-.54.22,1.39,1.39,0,0,0-.33.24.23.23,0,0,0-.07.2,1.11,1.11,0,0,0,.13.3l.15.26.15.22a.1.1,0,0,0,.12,0,1,1,0,0,0,.25-.12c.08,0,.13-.1.13-.17a.78.78,0,0,0-.06-.26.74.74,0,0,1-.06-.25.19.19,0,0,1,.12-.16c.13-.08.27,0,.41.11a2.62,2.62,0,0,1,.37.49,2.56,2.56,0,0,1,.17.37,1,1,0,0,1,.09.4.25.25,0,0,1-.13.27c-.07,0-.12.05-.16,0a1.3,1.3,0,0,1-.17-.17.44.44,0,0,0-.22-.16.39.39,0,0,0-.29.07.19.19,0,0,0-.12.19.74.74,0,0,0,.12.29,2.93,2.93,0,0,0,.32.49.23.23,0,0,0,.22.11.82.82,0,0,0,.34-.14l.13-.08A1.32,1.32,0,0,0,75,63a.73.73,0,0,0,.13-.4c0-.13,0-.25,0-.36A.28.28,0,0,1,75.3,62a.23.23,0,0,1,.24,0,.46.46,0,0,1,.2.19,1.54,1.54,0,0,1,.16.46,1.91,1.91,0,0,1,0,.52c0,.16,0,.26-.12.29l-.24.1-.46.23L73,65c-.24.13-.39.12-.48,0a.23.23,0,0,1,0-.25.63.63,0,0,0,.11-.24.57.57,0,0,0-.09-.34c-.24-.49-.4-.81-.48-.94l-.54-.86a.85.85,0,0,0-.26-.31.4.4,0,0,0-.22-.07h-.19a.23.23,0,0,1-.18-.13c-.1-.18,0-.35.3-.53l.1-.05.09,0Zm-34.6,43.56a1.41,1.41,0,0,1-.29.54,1.27,1.27,0,0,1-.43.33.64.64,0,0,1-.37.09.18.18,0,0,1-.11-.1.17.17,0,0,1,0-.14.85.85,0,0,1,.18-.25,2.32,2.32,0,0,0,.26-.3,1.2,1.2,0,0,0,.16-.34,1.12,1.12,0,0,0,0-.39,1.89,1.89,0,0,0,0-.39.77.77,0,0,1,0-.3.35.35,0,0,1,.08-.13.16.16,0,0,1,.15,0,.69.69,0,0,1,.27.27,1.46,1.46,0,0,1,.19.51A1.32,1.32,0,0,1,38.06,103.91Zm3.88-.92a.61.61,0,0,0,.22,0,.33.33,0,0,0,.18-.1l.14-.13a.22.22,0,0,1,.16,0,.39.39,0,0,1,.24.29,2.34,2.34,0,0,1-.14,1c-.19.66-.42,1-.68.88a.32.32,0,0,1-.21-.2.72.72,0,0,0-.14-.26,1.14,1.14,0,0,0-.48-.21l-.24-.08-.18-.05c-.12,0-.19,0-.21,0s0,0,0,.09a1.92,1.92,0,0,0,.14.4,5,5,0,0,0,.28.52c.11.16.19.25.25.27a.63.63,0,0,0,.22,0,.18.18,0,0,0,.13-.06.34.34,0,0,1,.12-.06.28.28,0,0,1,.17,0c.29.08.33.45.14,1.12a3.3,3.3,0,0,1-.28.7c-.12.21-.27.3-.43.25a.26.26,0,0,1-.19-.25.84.84,0,0,0,0-.18.3.3,0,0,0-.13-.11l-.33-.15-.7-.21-.89-.25a3.06,3.06,0,0,0-.41-.08.34.34,0,0,0-.16,0l-.13.12-.14.12a.15.15,0,0,1-.13,0c-.19,0-.28-.23-.27-.53a3.76,3.76,0,0,1,.14-.89,3.27,3.27,0,0,1,.25-.6q.16-.27.39-.21a.27.27,0,0,1,.17.11.87.87,0,0,1,.09.21.27.27,0,0,0,0,.14s0,.06.11.09l.28.09.3.09.21.07a.27.27,0,0,0,.15,0,.17.17,0,0,0,.08-.11.89.89,0,0,0-.11-.34c-.07-.16-.16-.32-.25-.49a3.65,3.65,0,0,0-.21-.31.28.28,0,0,0-.14-.09.17.17,0,0,0-.14,0,.37.37,0,0,0-.14.07l-.12.08a.3.3,0,0,1-.16,0,.56.56,0,0,1-.2-.12.49.49,0,0,1-.07-.32,2.57,2.57,0,0,1,.13-.69c.19-.7.43-1,.7-.93a.3.3,0,0,1,.22.26.38.38,0,0,0,.06.18.6.6,0,0,0,.22.13,5.4,5.4,0,0,0,.63.2Zm-1.37,5a.57.57,0,0,0,.22,0,.53.53,0,0,0,.17-.12.45.45,0,0,1,.13-.14s.08,0,.15,0a.37.37,0,0,1,.27.26,2.27,2.27,0,0,1,0,1c-.12.68-.32,1-.59.95a.29.29,0,0,1-.22-.18.92.92,0,0,0-.17-.25,1.29,1.29,0,0,0-.51-.16l-.24-.05-.18,0c-.13,0-.19,0-.21.06a.34.34,0,0,0,0,.09,1.36,1.36,0,0,0,.17.39,3.54,3.54,0,0,0,.34.49q.16.22.27.24a.57.57,0,0,0,.22,0,.25.25,0,0,0,.12-.08l.11-.08h.18c.29.06.37.43.25,1.11a3.18,3.18,0,0,1-.21.72c-.1.23-.24.33-.41.3a.27.27,0,0,1-.21-.24.89.89,0,0,0-.07-.16s-.06-.07-.13-.11a3,3,0,0,0-.35-.11l-.72-.14-.91-.16a2.93,2.93,0,0,0-.42,0,.3.3,0,0,0-.16,0,1,1,0,0,0-.11.13l-.12.13a.17.17,0,0,1-.14,0c-.19,0-.3-.21-.32-.51a3.9,3.9,0,0,1,.06-.9,2.62,2.62,0,0,1,.19-.62q.12-.28.36-.24a.26.26,0,0,1,.18.09,1.11,1.11,0,0,1,.11.2.48.48,0,0,0,.06.14.31.31,0,0,0,.12.07l.29.07.31.06.21,0a.42.42,0,0,0,.16,0,.22.22,0,0,0,.06-.12.92.92,0,0,0-.14-.33c-.09-.15-.19-.3-.3-.46a1.86,1.86,0,0,0-.24-.29.37.37,0,0,0-.15-.08.24.24,0,0,0-.14,0,.28.28,0,0,0-.12.08.36.36,0,0,1-.12.09.27.27,0,0,1-.16,0,.41.41,0,0,1-.21-.1.48.48,0,0,1-.1-.31,2.71,2.71,0,0,1,0-.7c.13-.71.33-1,.61-1a.3.3,0,0,1,.25.23.39.39,0,0,0,.07.17.53.53,0,0,0,.24.11,4.78,4.78,0,0,0,.64.14Zm-1,7c-.41.27-.61.44-.63.52s.09.19.31.22l.12,0a.24.24,0,0,0,.17,0,.71.71,0,0,0,.15-.12.74.74,0,0,1,.16-.12.25.25,0,0,1,.17,0,.25.25,0,0,1,.18.11.7.7,0,0,1,.09.37,4.55,4.55,0,0,1-.05.75,2.39,2.39,0,0,1-.2.84.31.31,0,0,1-.3.18.23.23,0,0,1-.14-.06.92.92,0,0,1-.09-.13.61.61,0,0,0-.12-.16.67.67,0,0,0-.24-.11,7.58,7.58,0,0,0-1.05-.19l-.65-.07a4.7,4.7,0,0,0-.52,0,.6.6,0,0,0-.26,0,.61.61,0,0,0-.15.13.66.66,0,0,1-.12.12.3.3,0,0,1-.17,0q-.18,0-.27-.27a2.39,2.39,0,0,1,0-1,2.53,2.53,0,0,1,.15-.63.32.32,0,0,1,.37-.22.3.3,0,0,1,.2.13,1.11,1.11,0,0,0,.18.19.88.88,0,0,0,.4.11c.17,0,.26,0,.27-.08s0-.13-.13-.24a2.38,2.38,0,0,0-.31-.33.71.71,0,0,0-.23-.16l-.17,0a.25.25,0,0,1-.16,0c-.18,0-.28-.14-.3-.35a2.92,2.92,0,0,1,0-.77l0-.13c.07-.57.24-.83.5-.8s.22.07.24.15a1.53,1.53,0,0,1,0,.39.46.46,0,0,0,0,.34l.18.27a2.37,2.37,0,0,0,.23.3.4.4,0,0,0,.24.15.58.58,0,0,0,.19,0l.26-.16L39.8,113a.82.82,0,0,0,.18-.21,1.64,1.64,0,0,1,.18-.22.33.33,0,0,1,.25,0c.22,0,.3.22.26.57l-.13,1a.85.85,0,0,1,0,.17.21.21,0,0,1-.09.1,2.37,2.37,0,0,1-.24.16Zm-3.89,4.79a1.64,1.64,0,0,1,.07-.46,2.14,2.14,0,0,1,.16-.39,1.08,1.08,0,0,0,.09-.26.39.39,0,0,0,0-.15.74.74,0,0,1,0-.12.44.44,0,0,1,.14-.27,1,1,0,0,1,.37-.21,1.56,1.56,0,0,1,.55-.07.69.69,0,0,1,.45.16.5.5,0,0,1,.17.41.35.35,0,0,1-.11.29,3.14,3.14,0,0,1-.39.26,1.62,1.62,0,0,0-.45.39,1,1,0,0,0-.15.56.56.56,0,0,0,.1.37.73.73,0,0,0,.29.23,1.11,1.11,0,0,0,.35.08,2.62,2.62,0,0,0,.64-.07,2,2,0,0,0,.53-.25,1.12,1.12,0,0,0,.37-.41,1.1,1.1,0,0,0,.14-.55,1.28,1.28,0,0,0-.07-.52,1.6,1.6,0,0,0-.2-.34.46.46,0,0,1-.12-.21.19.19,0,0,1,.12-.18.42.42,0,0,1,.24-.07,1.09,1.09,0,0,1,.33.1,1.11,1.11,0,0,1,.34.22.44.44,0,0,1,.14.28.91.91,0,0,0,.09.32,3,3,0,0,1,.16.48,1.75,1.75,0,0,1,.06.54,2.35,2.35,0,0,1-1.15,2,2.18,2.18,0,0,1-1.11.28,1.87,1.87,0,0,1-.84-.22,2.35,2.35,0,0,1-1.13-1.32A2.32,2.32,0,0,1,35.73,119.71Zm4.34,6.21v.26A2,2,0,0,1,40,127a.31.31,0,0,1-.27.2.27.27,0,0,1-.16,0,.58.58,0,0,1-.15-.13l-.14-.13a.38.38,0,0,0-.16,0H39c-.22,0-.33.07-.32.19s.08.11.24.22a4.66,4.66,0,0,0,.47.3l.36.21a2.29,2.29,0,0,1,.23.17A.28.28,0,0,1,40,128a.5.5,0,0,1,0,.19l0,1c0,.36-.1.55-.32.55a.32.32,0,0,1-.23-.07,1.07,1.07,0,0,1-.17-.24.59.59,0,0,0-.16-.22l-1.46-1.1-.24-.18a.35.35,0,0,0-.18,0,.32.32,0,0,0-.2.09l-.19.18-.19.25-.14.19c-.06.05-.08.17-.09.34a1.62,1.62,0,0,1,0,.38c0,.08-.12.12-.26.13s-.4-.28-.42-.85v-.13a2.66,2.66,0,0,1,.06-.74.33.33,0,0,1,.33-.29h.16l.16,0a.65.65,0,0,0,.26-.12,2.1,2.1,0,0,0,.33-.26.38.38,0,0,0,.15-.22c0-.07-.08-.11-.25-.1a1.15,1.15,0,0,0-.41,0,.9.9,0,0,0-.2.14.34.34,0,0,1-.22.1.32.32,0,0,1-.34-.24,2.38,2.38,0,0,1-.09-.6V126a2.13,2.13,0,0,1,0-.6.31.31,0,0,1,.33-.26.35.35,0,0,1,.22.08.8.8,0,0,0,.21.13,1.27,1.27,0,0,0,.41,0c.17,0,.25-.05.25-.12s-.05-.12-.16-.21a1.8,1.8,0,0,0-.35-.24.75.75,0,0,0-.26-.11l-.16,0-.16,0a.35.35,0,0,1-.35-.28,3.36,3.36,0,0,1-.09-.73v-.13c0-.57.11-.86.37-.87s.23,0,.26.12a1.27,1.27,0,0,1,.07.37c0,.18,0,.29.1.34a1.9,1.9,0,0,1,.18.22l.32.33a.43.43,0,0,0,.25.12.28.28,0,0,0,.18-.06,2.12,2.12,0,0,0,.24-.19l1.4-1.17a.76.76,0,0,0,.15-.23,1.09,1.09,0,0,1,.15-.25.32.32,0,0,1,.23-.08c.22,0,.34.17.35.53l0,1a.52.52,0,0,1,0,.19.25.25,0,0,1-.07.12,1.93,1.93,0,0,1-.22.18l-.34.22a4.84,4.84,0,0,0-.46.33c-.16.11-.23.19-.23.23s.11.18.33.18h.13a.28.28,0,0,0,.16,0,.79.79,0,0,0,.13-.13l.14-.14a.38.38,0,0,1,.17,0,.29.29,0,0,1,.26.19A2.25,2.25,0,0,1,40.07,125.92Zm-1.37,7-.21.17a.21.21,0,0,0-.07.16c0,.06.07.12.18.17a1.43,1.43,0,0,0,.29.1l.22.07.36.12.33.09a1,1,0,0,0,.28,0q.08,0,.09-.06a.39.39,0,0,0,0-.15.57.57,0,0,1,.06-.15s.07-.06.14-.07c.25,0,.4.25.48.83a3.61,3.61,0,0,1,0,.61.44.44,0,0,1-.09.28.26.26,0,0,1-.17.09.2.2,0,0,1-.17,0,1.38,1.38,0,0,1-.13-.2.65.65,0,0,0-.18-.21,3.56,3.56,0,0,0-.68-.26l-.86-.27-.56-.16a4.25,4.25,0,0,0-.44-.09,1.77,1.77,0,0,0-.46,0,.77.77,0,0,1-.55-.11.69.69,0,0,1-.26-.52.78.78,0,0,1,.18-.62,3.31,3.31,0,0,1,.6-.57c.06,0,.24-.17.56-.37l1-.63c.35-.22.61-.38.78-.47a.55.55,0,0,0,.19-.18.53.53,0,0,0,.06-.19,1,1,0,0,1,0-.16.21.21,0,0,1,.15-.06.32.32,0,0,1,.3.15,1.21,1.21,0,0,1,.17.4,3.79,3.79,0,0,1,.09.54c0,.35.07.62.08.79a1.1,1.1,0,0,1,0,.43.27.27,0,0,1-.24.19.19.19,0,0,1-.15,0,.42.42,0,0,1-.1-.12.49.49,0,0,0-.08-.13.09.09,0,0,0-.1,0,2.7,2.7,0,0,0-.58.3C39,132.76,38.75,132.87,38.7,132.91Zm-.55,5.21a.42.42,0,0,0,.28.31.81.81,0,0,0,.46,0,4.35,4.35,0,0,0,.51-.19,5.08,5.08,0,0,0,.59-.35,2.13,2.13,0,0,0,.46-.43.52.52,0,0,0,.11-.45.46.46,0,0,0-.27-.34.75.75,0,0,0-.47,0,3.37,3.37,0,0,0-.74.3,2.56,2.56,0,0,0-.71.52A.69.69,0,0,0,38.15,138.12Zm1.71,1.7a2,2,0,0,1-.88,0,1.9,1.9,0,0,1-.79-.33,2.25,2.25,0,0,1-.61-.62,2.6,2.6,0,0,1-.36-.85,2.2,2.2,0,0,1,0-1.05,2.07,2.07,0,0,1,.4-.83,2.36,2.36,0,0,1,.62-.57,2.09,2.09,0,0,1,.65-.28,1.91,1.91,0,0,1,.89,0,2,2,0,0,1,.78.35,2.33,2.33,0,0,1,.6.65,2.66,2.66,0,0,1,.35.83,2.44,2.44,0,0,1,0,.89,2.13,2.13,0,0,1-.29.81,2.12,2.12,0,0,1-1.39,1Zm1.49,2.45a2.89,2.89,0,0,0,.46-.16A.33.33,0,0,0,42,142a.34.34,0,0,0,0-.17c-.09-.3-.31-.4-.65-.3s-.62.36-.53.7a.29.29,0,0,0,.11.16.24.24,0,0,0,.17,0Zm-1.41.4a1.07,1.07,0,0,0,.26-.1.14.14,0,0,0,0-.16.39.39,0,0,0-.24-.29.75.75,0,0,0-.44,0,.91.91,0,0,0-.39.21.35.35,0,0,0-.08.36c0,.08.06.13.12.13a.6.6,0,0,0,.27,0Zm-.22-1.75a.27.27,0,0,0,.18.06.1.1,0,0,0,.07,0,.53.53,0,0,0,0-.11,1.33,1.33,0,0,1,.09-.34,1.2,1.2,0,0,1,.23-.34,1,1,0,0,1,.38-.22,1.42,1.42,0,0,1,.65,0,1.22,1.22,0,0,1,.63.37,1.85,1.85,0,0,1,.44.84c0,.13.09.31.14.55s.11.41.14.53l.18.59c.09.26.15.45.19.59a.57.57,0,0,1,0,.29.29.29,0,0,1-.19.18.26.26,0,0,1-.24-.06.68.68,0,0,0-.26-.15,1.53,1.53,0,0,0-.57.07l-1.68.41a.93.93,0,0,0-.45.21.71.71,0,0,0-.11.28.24.24,0,0,1-.18.21.29.29,0,0,1-.28-.06.54.54,0,0,1-.16-.26c0-.16-.1-.38-.17-.66s-.12-.49-.16-.63-.07-.22-.13-.39-.11-.31-.14-.41a2.16,2.16,0,0,1-.09-.83.94.94,0,0,1,.24-.51,1,1,0,0,1,.42-.26,1.53,1.53,0,0,1,.43,0A.84.84,0,0,1,39.72,140.92Zm1,4.36a.3.3,0,0,1,0-.21.22.22,0,0,1,.15-.15.37.37,0,0,1,.21,0l.38.1.39.1a.61.61,0,0,0,.24,0,.56.56,0,0,0,.2-.14c.06-.07.15-.18.25-.32s.18-.24.24-.3a.39.39,0,0,1,.17-.13.19.19,0,0,1,.2,0,.27.27,0,0,1,.14.16,1.51,1.51,0,0,1-.29.93c-.12.21-.21.38-.29.5a.6.6,0,0,1-.29.24.66.66,0,0,1-.28,0,1.58,1.58,0,0,1-.31-.09l-.32-.15C41,145.63,40.76,145.44,40.71,145.28Zm.52,1.53a.28.28,0,0,1,0-.22.29.29,0,0,1,.14-.15.56.56,0,0,1,.22,0l.37.09.39.1a.41.41,0,0,0,.25,0,.46.46,0,0,0,.19-.14,2.52,2.52,0,0,0,.25-.31l.25-.31a.37.37,0,0,1,.16-.13.26.26,0,0,1,.21,0,.33.33,0,0,1,.14.17c0,.15-.05.46-.3.92-.06.12-.12.22-.17.31a1.51,1.51,0,0,1-.18.26.51.51,0,0,1-.23.17.53.53,0,0,1-.37,0,3.84,3.84,0,0,1-.54-.22C41.55,147.15,41.28,147,41.23,146.81Z" style="fill:#fff;fill-rule:evenodd"/></g></svg>